<svg fill="none" height="100" viewBox="0 0 300 100" width="300" xmlns="http://www.w3.org/2000/svg" xmlns:xlink="http://www.w3.org/1999/xlink"><clipPath id="a"><path d="m0 33h300v34.3125h-300z"/></clipPath><g clip-path="url(#a)" fill="#1d1d1d"><path d="m0 33.7684v1.3566h10.7577v31.514h1.5842v-31.514h10.7671v-1.3566z"/><path d="m52.8776 33.7684v20.0639h-20.0449v-20.0639h-1.5843v32.8706h1.5843v-11.4596h20.0449v11.4596h1.5747v-32.8706z"/><path d="m66.2061 33.7684v32.8706h20.0449v-1.3566h-18.4702v-10.103h15.9468v-1.3471h-15.9468v-18.7073h17.7777v-1.3566z"/><path d="m134.822 33.0949-12.779 22.3785-12.74-22.3785h-.247l-3.756 33.5441h3.016l2.761-25.0822 10.815 19.2291h.151l10.853-19.2291 2.77 25.0822h3.159l-3.757-33.5441z"/><path d="m143.578 43.4066c-.016-1.3203.235-2.6302.738-3.8513.502-1.221 1.246-2.328 2.187-3.2546s2.059-1.6536 3.287-2.1377c1.229-.484 2.542-.7151 3.862-.6792 1.529-.0827 3.054.2218 4.434.8851 1.379.6633 2.569 1.664 3.459 2.9095l-2.381 1.6507c-.632-.8797-1.477-1.5843-2.456-2.0473s-2.06-.6693-3.141-.5995c-3.927 0-6.773 3.0736-6.773 7.1623 0 4.0886 2.912 7.1623 6.887 7.1623 1.143.041 2.28-.1967 3.311-.6924 1.031-.4958 1.926-1.2349 2.608-2.1535l2.41 1.6126c-2.03 2.6467-4.611 3.9559-8.443 3.9559-1.315.0336-2.624-.1997-3.847-.6856-1.222-.486-2.334-1.2146-3.267-2.1419-.934-.9272-1.67-2.034-2.164-3.2535-.494-1.2194-.736-2.5263-.711-3.8419z"/><path d="m169.618 33.7684v32.8706h20.927v-2.808h-17.721v-8.073h15.207v-2.751h-15.207v-16.4306h17.029v-2.808z"/><path d="m210.305 33.8064h3.207l3.994 9.4864 3.956-9.4864h3.054l-5.521 12.9964 5.825 13.6795 10.558-26.6759h3.159l-13.499 33.5062h-.304l-7.285-16.867-7.153 16.867h-.304l-13.708-33.5062h3.302l10.814 26.7233 5.578-13.4802z"/><path d="m241.013 66.639h-3.216l14.126-33.639h.246l14.164 33.639h-3.302l-2.324-5.6919h-17.332zm11.052-26.7234-7.589 18.2141h15.007c.048 0-7.456-18.2141-7.456-18.2141"/><path d="m274.083 33.0949v33.5441h3.007v-25.8601l22.616 26.5336h.294v-33.5441h-3.007v25.8601l-22.616-26.5336z"/></g></svg>