<svg fill="none" height="100" viewBox="0 0 300 100" width="300" xmlns="http://www.w3.org/2000/svg" xmlns:xlink="http://www.w3.org/1999/xlink"><clipPath id="a"><path d="m0 26h300v47.9918h-300z"/></clipPath><g clip-path="url(#a)" fill="#1d1d1d"><path d="m6.67989 66.0052-.83173-5.4453h-3.55539l-.85578 5.4453h-1.43699l3.17661-18.9614h2.16851l3.02429 18.9574zm-4.15865-6.8322h3.1245l-1.48709-10.1251z"/><path d="m25.3046 47.0438c.8317 0 1.5873.1022 2.2447.5291.982.6573 1.7135 2.1184 1.7135 5.2689 0 2.874-.6012 4.3871-1.5131 5.1427-.7055.5792-1.5372.7055-2.419.7055h-1.0843v7.3112h-1.6635v-18.9574zm-1.0582 10.2212h1.0582c.4298.0273.8555-.0976 1.2025-.3527.6293-.479 1.0582-1.5633 1.0582-4.0825 0-2.2948-.3527-3.5053-1.0341-4.0083-.3623-.2466-.7977-.3625-1.2346-.3287h-1.0582z"/><path d="m48.7193 66.0052-.8317-5.4453h-3.5554l-.8558 5.4453h-1.437l3.1766-18.9614h2.1705l3.0263 18.9574zm-4.1586-6.8322h3.1245l-1.4871-10.1251z"/><path d="m69.7912 65.905c-.5274.1336-1.0693.201-1.6134.2004-3.9081 0-4.0584-3.856-4.0584-9.5278s.1503-9.62 4.0584-9.62c.5439.0014 1.0857.0687 1.6134.2004v1.4029h-.1022c-.4212-.1482-.8643-.2247-1.3108-.2265-2.3428 0-2.5452 2.2928-2.5452 8.167 0 5.8743.2004 8.1931 2.5452 8.1931.4465-.0018.8896-.0783 1.3108-.2265h.1022z"/><path d="m85.8666 47.0438v8.4175h3.8821v-8.4175h1.6635v18.9574h-1.6635v-9.0709h-3.8821v9.0749h-1.6654v-18.9614z"/><path d="m112.133 47.0438v1.437h-3.782v6.9805h3.207v1.463h-3.207v7.6159h3.882v1.463h-5.545v-18.9594z"/><path d="m180.233 65.905c-.527.1336-1.069.201-1.613.2004-3.909 0-4.059-3.856-4.059-9.5278s.15-9.62 4.059-9.62c.543.0014 1.085.0687 1.613.2004v1.4029h-.102c-.421-.1482-.865-.2247-1.311-.2265-2.343 0-2.545 2.2928-2.545 8.167 0 5.8743.2 8.1931 2.545 8.1931.446-.0018.89-.0783 1.311-.2265h.102z"/><path d="m200.269 66.0052-.832-5.4453h-3.554l-.857 5.4453h-1.437l3.176-18.9614h2.169l3.024 18.9574zm-4.159-6.8322h3.124l-1.485-10.1251z"/><path d="m218.893 47.0438c.834 0 1.59.1022 2.245.5291.982.6573 1.714 2.1184 1.714 5.2689 0 2.874-.602 4.3871-1.512 5.1427-.707.5792-1.539.7055-2.421.7055h-1.084v7.3112h-1.663v-18.9574zm-1.058 10.2212h1.058c.43.0273.856-.0976 1.203-.3527.631-.479 1.06-1.5633 1.06-4.0825 0-2.2948-.355-3.5053-1.034-4.0083-.363-.2467-.799-.3626-1.237-.3287h-1.058z"/><path d="m239.031 47.0438v18.9574h-1.663v-18.9574z"/><path d="m260.329 47.0438v1.463h-2.747v17.4944h-1.664v-17.4904h-2.747v-1.467z"/><path d="m279.283 66.0052-.832-5.4453h-3.555l-.856 5.4453h-1.437l3.175-18.9614h2.168l3.024 18.9574zm-4.161-6.8322h3.127l-1.487-10.1251z"/><path d="m296.849 47.0438v17.4703h3.151v1.4871h-4.81v-18.9574z"/><path d="m169.08 73.9918h-8.71l-15.286-30.5716-15.286 30.5716h-8.71l23.996-47.9918zm-7.131-2.5573h2.994l-19.859-39.7206-19.862 39.7206h3.007l16.855-33.7282z" opacity=".35"/><path d="m163.228 73.9918h-8.713l-9.431-18.8652-9.434 18.8652h-8.71l18.144-36.2754zm-7.133-2.5573h3.006l-14.017-28.0143-14.009 28.0143h2.996l11.023-22.0238z" opacity=".35"/><path d="m163.228 73.9918h-8.713l-9.431-18.8652-9.434 18.8652h-8.71l18.144-36.2754zm-7.133-2.5573h3.006l-14.017-28.0143-14.009 28.0143h2.996l11.023-22.0238z" opacity=".35"/><path d="m157.373 73.9918h-24.579l12.29-24.5811zm-20.442-2.5573h16.31l-8.155-16.3079z" opacity=".35"/><path d="m157.373 73.9918h-24.579l12.29-24.5811zm-20.442-2.5573h16.31l-8.155-16.3079z" opacity=".35"/><path d="m157.373 73.9918h-24.579l12.29-24.5811zm-20.442-2.5573h16.31l-8.155-16.3079z" opacity=".35"/><path d="m169.08 73.9918h-8.71l-15.286-30.5716-15.286 30.5716h-8.71l23.996-47.9918zm-7.131-2.5573h2.994l-19.859-39.7206-19.862 39.7206h3.007l16.855-33.7282z" opacity=".35"/><path d="m163.228 73.9918h-8.713l-9.431-18.8652-9.434 18.8652h-8.71l18.144-36.2754zm-7.133-2.5573h3.006l-14.017-28.0143-14.009 28.0143h2.996l11.023-22.0238z" opacity=".35"/><path d="m163.228 73.9918h-8.713l-9.431-18.8652-9.434 18.8652h-8.71l18.144-36.2754zm-7.133-2.5573h3.006l-14.017-28.0143-14.009 28.0143h2.996l11.023-22.0238z" opacity=".35"/><path d="m157.373 73.9918h-24.579l12.29-24.5811zm-20.442-2.5573h16.31l-8.155-16.3079z" opacity=".35"/><path d="m157.373 73.9918h-24.579l12.29-24.5811zm-20.442-2.5573h16.31l-8.155-16.3079z" opacity=".35"/><path d="m157.373 73.9918h-24.579l12.29-24.5811zm-20.442-2.5573h16.31l-8.155-16.3079z" opacity=".35"/></g></svg>