<svg fill="none" height="100" viewBox="0 0 300 100" width="300" xmlns="http://www.w3.org/2000/svg"><g fill="#1c1c1c"><path d="m42.4951 30.9217c2.6772 1.9864 4.6003 4.834 5.4511 8.0712.8483 3.3137.5778 6.8174-.7688 9.9593-1.3481 3.2306-3.7897 5.8755-6.891 7.465-.7458.3797-1.5238.6914-2.3248.9313-2.1301.7942-4.3876 1.1855-6.6589 1.154h-6.0495c-3.1191.0694-6.347 2.0343-8.5593 4.2657-2.1253 2.1329-3.1336 5.5038-3.1336 7.3043v1.0993c-1.2309.1914-2.4725.3049-3.7175.3396-3.36038.008-6.69429-.5983-9.83957615-1.7895 0-.0348-.00078217-.0712-.00157596-.1081-.00162355-.0754-.00329578-.1531.00157596-.2243.00305843-.0446.00934075-.0893.01558465-.1337.0085646-.0609.0170568-.1212.0170568-.1804.4405277-3.9038 2.2607647-7.5178 5.1283347-10.1821 2.38039-2.2201 5.3739-3.6605 8.5847-4.1305h.0471c.8797-.149 1.7701-.2247 2.6621-.2265h10.9059c1.2683.0277 2.5339-.1297 3.7574-.4674 2.121-.8332 3.9609-2.2601 5.3024-4.1123 1.0268-1.4119 1.7664-3.0143 2.1761-4.7149.2028-.8594.3242-1.7362.3627-2.6186.0562-.7666.027-1.5371-.0871-2.2972-.4424-3.5279-1.5377-5.3869-4.49-7.5781-1.6124-1.2038-3.4901-1.997-5.4728-2.3118-1.7781-.2505-3.5725-.364-5.3677-.3397l-22.18534-.0292c-.496005-.6588-.949099-1.3493-1.35643615-2.0671l25.77227615.0183c.1813 0 .3626.0064.544.0127.1813.0064.3627.0128.544.0128l.5839.0183 6.0351.0657c3.2325-.1295 6.4121.8562 9.0126 2.7939z"/><path d="m240.001 39.4075c-.118.0108-.251.0229-.406.0345.174.1816.337.3528.493.5165l.019.02c.376.3943.71.7451 1.055 1.0923 3.595 3.6521 7.206 7.3043 10.833 10.9564.187.182.333.4024.428.6462.096.2439.137.5055.123.7672-.017.9955-.011 1.9911-.005 2.9877v.0083c.002.496.005.9922.005 1.4888.003.2371.016.4601.031.716v.0032c.007.1097.014.2254.02.3508.579 0 1.149.0042 1.715.0082 1.121.0081 2.228.0161 3.363-.0082 0-.6417.004-1.2687.009-1.886v-.0023c.008-1.2051.017-2.3727-.009-3.5387-.019-.3136.033-.6273.151-.918s.299-.5511.53-.762c3.898-3.9345 7.781-7.8764 11.65-11.8256.165-.1562.312-.3306.569-.636l.08-.0944h-.965c-.44 0-.882.0045-1.324.0089-.886.009-1.775.0179-2.665-.0089-.283-.0183-.565.028-.827.1355-.262.1076-.496.2735-.686.4854-2.116 2.165-4.247 4.3145-6.379 6.4641-.608.6135-1.217 1.227-1.824 1.8408-.1.0976-.202.1951-.307.2967-.14.1343-.287.2757-.448.4337-.095-.092-.186-.1789-.273-.2627-.17-.1625-.328-.3135-.481-.4677-2.771-2.7732-5.532-5.5573-8.284-8.3524-.162-.1798-.361-.321-.584-.4132-.223-.0923-.463-.1333-.703-.12-.968.0122-1.935.0081-2.902.004-.483-.002-.967-.004-1.451-.004-.166 0-.334.0153-.551.0349z"/><path d="m174.091 39.4238c.122-.0069.235-.0147.342-.0219.228-.0156.426-.0292.626-.0292.355 0 .709.003 1.064.006.887.0074 1.775.0149 2.661-.0243.294-.0316.59.0276.849.1699.259.1422.469.3607.602.6263 2.956 4.7478 5.948 9.4955 8.929 14.2177.134.2126.273.4188.445.6756l.179.2667c.08-.1136.154-.2179.224-.3165.138-.1931.259-.364.374-.5381 3.144-4.7746 6.287-9.5515 9.43-14.331.13-.2553.334-.4653.584-.6027s.536-.1959.82-.1679c.653.0329 1.305.0263 1.958.0198.435-.0044.871-.0088 1.306-.0015.172 0 .343.0154.54.0333.106.0096.219.0198.345.0288-.061.1086-.114.2079-.164.3002-.096.1777-.178.3298-.271.474-3.854 6.0187-7.707 12.0399-11.559 18.0634-.126.2527-.324.4614-.569.5988-.246.1375-.526.1974-.806.1718-1.574-.0511-3.151-.0328-4.715 0-.207.0191-.415-.0237-.598-.1231s-.333-.2509-.432-.4356c-3.955-6.1746-7.913-12.3442-11.874-18.509-.102-.1383-.166-.2801-.28-.5291z"/><path clip-rule="evenodd" d="m232.911 58.9921h5.618c-.039-.1314-.087-.2596-.145-.3835-4.019-6.2427-8.033-12.489-12.041-18.739-.097-.17-.24-.3085-.412-.3992-.172-.0906-.367-.1295-.56-.1121-1.484.0219-2.967.0365-4.451 0-.238-.0186-.476.033-.685.1485-.209.1154-.381.2897-.493.5015-4.058 6.1161-8.111 12.2286-12.161 18.3374-.133.2259-.254.4587-.363.6975.56 0 1.107-.0038 1.646-.0075 1.051-.0072 2.072-.0142 3.091.0075.209.0211.419-.0221.603-.1238s.333-.2572.427-.4459c.336-.5537.687-1.0976 1.039-1.6411.292-.4528.585-.9067.869-1.3646.083-.161.212-.2933.37-.3798.158-.0866.339-.1235.518-.1059.464.0146.929.0097 1.393.0048.232-.0024.464-.0048.696-.0048h11.816c.497-.0037.867.1059 1.089.5916.13.2421.274.4762.431.7012.383.6076.765 1.2169 1.137 1.8119zm-7.469-11.9227c.78 1.2575 1.564 2.5212 2.366 3.8113h-9.905l5.027-7.8594c.837 1.3478 1.663 2.6782 2.492 4.0155z" fill-rule="evenodd"/><path d="m166.199 43.5508v-4.0173c-.693-.2118-22.225-.241-23.194-.0365v19.4694h23.397v-4.1561h-18.305v-3.6338c1.002 0 1.997.0008 2.987.0016 1.968.0016 3.918.0032 5.863-.0016.933-.0024 1.867.0009 2.802.0041 1.993.007 3.985.0139 5.96-.0333v-4.0174h-17.615v-3.5279h6.027c.675 0 1.353.0016 2.031.0032h.003c1.358.0033 2.717.0065 4.052-.0032.651-.0048 1.299.0005 1.947.0058 1.344.011 2.686.0219 4.045-.057z"/><path clip-rule="evenodd" d="m106.748 39.369c-.046.1169-.081.238-.105.3615v18.6697c.005.1517.02.3029.043.4528.004.022.033.0658.055.0658.036.0387.075.0753.116.1095h2.397c.837.0278 1.675.0107 2.51-.0511v-7.5928c.123-.0062.236-.0132.341-.0199.204-.0128.381-.0239.558-.0239.928 0 1.856.0033 2.784.0065h.002c1.858.0065 3.717.013 5.574-.0065.252-.013.504.0369.732.1452s.427.2717.577.4757c.884 1.0456 1.776 2.082 2.669 3.1188.971 1.1288 1.943 2.258 2.906 3.4002.144.1902.332.3419.547.4419.216.1.452.1451.689.1315h4.182c.141 0 .284-.0179.463-.0403.102-.0127.215-.0268.346-.04-.634-.7406-1.229-1.4319-1.798-2.0928l-.002-.0022-.605-.7026c-.254-.2961-.51-.5914-.766-.887-.499-.5753-1-1.1528-1.493-1.7388-.246-.2921-.497-.5794-.749-.8678-.513-.5879-1.031-1.1808-1.518-1.8275.118-.0636.239-.1209.363-.1717 2.825-.8253 4.196-2.5966 4.254-5.5183.04-2.1913-.878-3.8311-2.901-4.7478-.497-.2299-1.01-.424-1.535-.5807-1.381-.3559-2.806-.5132-4.232-.4674zm5.034 7.8119v-3.7252l.946.0146c1.201 0 2.401-.0024 3.602-.0049 2.401-.0048 4.802-.0097 7.203.0049.663-.0038 1.324.0797 1.966.2483.388.0913.733.3142.977.6314.245.3172.373.7094.364 1.1107.012.3699-.105.7323-.33 1.0249s-.544.4971-.903.5784c-.5.1205-1.012.1794-1.527.1753h-11.529c-.151 0-.301-.0149-.468-.0313-.094-.0094-.194-.0192-.301-.0271z" fill-rule="evenodd"/><path clip-rule="evenodd" d="m71.633 39.4164c.0991-.0049.1951-.0105.289-.0159.25-.0144.4847-.0279.7193-.0279 1.4377 0 2.8754-.0022 4.3131-.0044 3.7741-.0059 7.5481-.0117 11.3221.0227 1.2707.0098 2.5366.158 3.7756.4419 2.9885.6975 4.4428 2.3483 4.8744 5.4051.1909 1.2713.1242 2.5682-.1958 3.8128-.2225.9245-.663 1.7812-1.2843 2.4977-.6212.7165-1.4049 1.2716-2.2845 1.6183-1.2654.5232-2.6216.7876-3.9895.7779-3.7574.0219-7.5136.0353-11.2686.0402h-1.1642c-.0969.8726-.0856 1.7289-.0743 2.5807.0106.8057.0212 1.6076-.0599 2.4154h-4.9724zm5.0776 4.0722v6.2086c.1641.0316.3301.0523.4969.0621 3.605 0 7.2065 0 10.8115-.0256.5453-.0135 1.0876-.0857 1.6176-.2155 1.5305-.3469 2.1979-1.1942 2.2305-2.7719-.0048-.2736-.0241-.5467-.058-.8181-.0173-.4633-.1801-.909-.4649-1.2732-.2848-.3643-.6769-.6281-1.12-.7537-.7122-.2534-1.4578-.3986-2.2124-.431-2.7371-.0416-5.4762-.0432-8.2143-.0447-.8647-.0005-1.7293-.001-2.5937-.0028-.1705.0104-.3401.0323-.5077.0658z" fill-rule="evenodd"/><path d="m284.23 54.8175h15.737c.051 1.4316.036 2.7792 0 4.1671h-20.829v-19.5499h5.078z"/></g></svg>