<svg fill="none" height="100" viewBox="0 0 300 100" width="300" xmlns="http://www.w3.org/2000/svg"><g fill="#1d1d1d"><path d="m295.808 38.4104c-1.767-1.3893-3.831-2.1253-5.972-2.1253-2.343 0-4.604.918-6.363 2.5824-4.067 3.846-4.709 10.4925-5.225 15.8298l-.045.4808c-.153 1.557-.28 3.212-.39 5.044-2.457-.0519-5.017-.4145-7.613-1.0748-.391-.0994-.75-.1988-1.085-.3007 2.049-2.0328 3.744-4.5113 5.169-7.5477 2.492-5.3091 2.461-9.5484-.09-12.5942-1.343-1.6025-3.377-2.4854-5.73-2.4854-1.848 0-3.76.5303-5.385 1.4913-2.439 1.4437-4.303 4.0993-5.539 7.8959-1.251 3.8416-1.603 9.6616 1.35 13.8015-2.705.9254-5.82.9654-9.146.1231-.706-.18-1.386-.4169-2.027-.7083 2.941-2.7549 9.823-10.3263 6.822-18.5185-1.073-2.9276-3.601-4.6083-6.94-4.6083-.304 0-.614.0144-.928.0426-3.184.2839-6.249 2.658-8.201 6.3502-2.453 4.6414-3.939 11.8226-.277 17.1198-2.283.9823-4.776 1.2781-7.059.8285-1.976-.3902-3.599-1.5051-4.823-3.3158.696-1.2756 1.357-2.7125 2.061-4.4925 1.835-4.637 3.225-9.9575 4.38-16.7504.921-5.4085 1.594-11.1598.301-16.5683-.778-3.257-3.066-6.7365-7.154-6.7365-.453 0-.923.045-1.398.1325-5.463 1.0224-6.46 7.0912-6.94 10.0074-.779 4.7408-.831 9.6191-.885 14.3361l-.002.1019c-.036 3.3164-.053 6.3033.089 9.2996.164 3.3896.572 7.7352 2.266 11.4699-.318.4432-.617.781-1.092 1.2405-.019.0188-.067.0594-.123.1069-.072.0638-.152.1325-.202.1795-.106.0732-.212.1419-.319.2107-.26.1657-.976.4832-1.586.6277-.773.182-1.584.1345-2.448-.142.868-1.7445 1.162-3.7823.848-5.9318-.735-5.0534-3.434-10.5871-8.257-16.9235-.438-.5752-1.18-.8922-2.094-.8922-1.184 0-2.492.5351-3.112 1.2686-3.642 4.3338-7.916 8.6275-13.066 13.1224-3.086 2.6937-5.945 4.8447-8.741 6.5729-1.446.8947-2.389 1.3824-3.732 1.9314-.279.1133-.573.2171-.826.3076-.16.054-.319.1064-.456.1489l-.133.0332c-.342.0875-.703.1469-.989.1919-.098.0113-.168.0188-.214.0262l-.05.0024c-.068.0025-.135.007-.213.007-1.5.0237-3.353.8027-3.885 2.4597-.213.6578-.11 1.3156.291 1.8508.467.6271 1.296 1.0179 2.162 1.0179h.046c7.832-.1232 14.994-6.1351 20.22-10.5258.013-.0098.025-.0212.036-.0311-.13.4095-.209.8403-.239 1.2973-.148 2.433 1.271 5.3492 3.455 7.0912 2.129 1.7 4.981 2.6343 8.025 2.6343 2.076 0 4.163-.4259 6.072-1.2425 1.616.7479 3.344 1.1263 5.14 1.1263 1.338 0 2.68-.2132 3.987-.6366 1.707-.5515 3.269-1.4324 4.648-2.6204.164.1543.33.3032.498.4451 2.477 2.0917 5.531 3.1526 9.083 3.1526 3.336 0 7.018-.9892 10.393-2.791 3.587 2.1208 7.925 2.6229 10.963 2.6654 3.454.05 6.991-.826 10.274-2.5254 3.066 1.373 6.492 1.9339 9.449 2.3028 1.664.2063 3.245.3102 4.726.2988-.073 2.2247-.118 4.6344-.148 7.5294-.084 8.3267.049 16.6222.398 24.6605.058 1.3256 1.039 2.1491 2.563 2.1491 1.203 0 2.485-.5183 3.266-1.3181.537-.5515.808-1.2004.778-1.877-.327-7.5601-.462-15.5905-.402-23.8658.021-3.0626.073-5.7587.154-8.2322 3.515-1.0674 6.947-2.982 9.698-5.4155 3.177-2.8118 5.215-6.0995 5.887-9.5078.862-4.3654-.654-8.6922-3.954-11.2909zm-7.946 18.715c-1.197.8497-2.325 1.5031-3.428 1.9858.092-1.4912.193-2.8751.311-4.215.176-1.9809.42-4.3244.904-6.6673.227-1.0985.545-2.2203.968-3.4252l.054-.1563c.305-.8734 1.018-2.9206 1.962-3.117.07-.0143.145-.0212.22-.0212.789 0 1.89.7834 3.103 2.2059 1.342 1.5738 1.506 3.8297 1.41 5.4461-.234 3.8293-3.927 6.8444-5.504 7.9642zm-21.688-15.1978c.056-.0544.096-.0945.131-.1301.053-.0307.125-.0757.223-.1419.044-.0282.15-.0732.193-.0925.005-.0025.013-.005.018-.007.906-.1657 2.003.6579 2.518 1.8484.779 1.7964.037 4.033-.721 5.9907-.959 2.4804-2.306 4.6107-4.008 6.3383-.16-.2532-.306-.5233-.442-.8096-1.094-2.3242-1.214-5.0178-.361-8.2417.357-1.3512.844-2.5185 1.484-3.5621.278-.4397.572-.8067.965-1.1925zm-17.559 5.1691c-.496 2.5967-2.145 5.2661-5.035 8.1467-.441-.7622-.747-1.5927-.914-2.4829-.443-2.386.022-5.2592 1.381-8.5424.504-1.2162 1.193-2.2297 2.051-3.0131.246-.2251.377-.2557.483-.2557.154 0 .366.0806.631.2369 1.464.8715 1.76 4.0478 1.403 5.9105zm-21.574-18.6442c-.116 4.0474-.812 7.889-1.82 12.4147-.449 2.0165-.986 4.3006-1.669 6.5916-.264-2.6036-.284-5.2216-.279-8.1091.005-4.8026.036-9.1294.357-13.4563.178-2.4023.511-4.5375 1.019-6.5253.033-.1276.065-.2676.099-.4165.089-.3907.193-.8472.349-1.2048.959.781 1.369 2.5279 1.654 3.7278l.062.2651c.422 1.7633.345 3.7041.27 5.5812-.018.3813-.033.7577-.042 1.1316zm-24.632 15.1365c.866 1.3537 1.682 2.7905 2.543 4.4732 1.247 2.431 2.071 4.6132 2.522 6.6747.094.4308.155.8522.181 1.2642-2.98-2.4903-6.666-5.5242-10.518-5.5242-.646 0-1.276.0875-1.89.2601 2.531-2.3241 4.928-4.7151 7.162-7.148zm-4.662 12.9498c.812.4308 1.579.9817 2.28 1.4838.873.6276 1.717 1.3211 2.539 2.0051-.084-.0099-.167-.0213-.242-.0331-1.719-.2839-3.416-1.3869-4.226-2.7481-.124-.2087-.237-.4387-.351-.7077z"/><path d="m128.2 55.8049c-.781 0-1.663.2508-2.425.6885-3.336 1.9196-6.93 2.978-10.12 2.978-1.962 0-3.738-.3976-5.293-1.1856 3.712-2.6417 7.805-6.4145 8.504-12.3626.48-4.0899-1.231-8.6655-6.137-9.6686-.567-.1157-1.145-.1731-1.722-.1731-2.914 0-5.886 1.5244-7.952 4.076-3.9897 4.9327-4.903 12.7361-2.167 18.0052-.615.3477-1.2751.7266-1.9043 1.103-.8317.497-1.4467 1.3557-1.5646 2.1841-.0892.6134.0892 1.1817.5158 1.6387.5038.5421 1.2196.8284 2.0681.8284.798 0 1.678-.2537 2.415-.6934.564-.3388 1.14-.6771 1.723-1.0204l.275-.1607c2.357 1.557 5.571 2.5487 8.878 2.7292.4.0213.813.0327 1.22.0327 3.876 0 7.972-.9794 11.841-2.8331.889-.4259 1.817-.9185 2.84-1.5081.809-.4659 1.438-1.3349 1.566-2.1609.097-.6272-.079-1.2024-.511-1.6664-.5-.5445-1.209-.8309-2.05-.8309zm-20.719-11.917c.429-.8473.909-1.522 1.452-2.0546.038-.0332.205-.142.291-.2013.087-.0569.171-.1138.241-.1707l.01-.0044c.036-.0169.063-.0312.06-.0332.018-.0024.037-.0024.063-.0024l.268.0024c.682 0 1.21.2483 1.615.7597 1.015 1.2761.974 3.8817.629 5.2404-.69 2.708-2.432 5.0128-5.469 7.2188-1.491-3.2946-.647-7.8178.84-10.7547z"/><path d="m95.4038 46.2178c-1.4392-7.0842-4.648-10.6771-9.5343-10.6771h-.137c-3.85.0544-7.0941 1.5101-9.6591 4.3269-.0942-.1282-.1859-.2508-.2771-.367-1.9308-2.4785-4.8308-3.901-7.9525-3.901-2.025 0-4.0284.5965-5.7904 1.7232-1.2367.7904-2.3626 1.8464-3.3534 3.1457-.2121-.4021-.4242-.781-.6388-1.1435-1.0392-1.7564-2.3504-3.6428-4.7658-3.7872-1.7742-.1064-3.8667 1.1742-4.0329 3.1269-.2363 2.7693-.6196 5.2379-1.3188 8.523-.5763 2.7055-1.2558 5.0747-2.0805 7.2475-.4075 1.0772-.7762 1.875-1.2729 2.753-.2216.3927-.4917.8121-.8171 1.2731l-.0604.0781c-.07.0901-.1738.2246-.2267.2933-.1496.1657-.3113.3314-.4921.5065-.0313.0287-.1154.097-.1879.1558l-.0822.0668c-.0266.0163-.0528.0351-.0579.0401-.1108.0613-.1758.0944-.2146.1132l-.0312.0074c-.0242 0-.0579-.0049-.0892-.0074l-.0649-.0188c-.0288-.0163-.058-.0311-.0842-.0475-.0725-.0944-.1707-.1943-.2866-.3126-.0725-.0732-.1954-.1983-.2121-.2176 0-.0025-.1037-.1701-.3062-.6271-.398-.9067-.5426-1.7277-.6463-2.4286-.4866-3.2782-.3038-6.6885-.1275-9.988.063-1.1742.1275-2.3885.1617-3.579l.0046-.1726c.0433-1.5219.0916-3.2451-.4408-4.7764-.4655-1.335-1.5812-2.071-3.1408-2.071-.9425 0-2.0104.279-2.9267.7667-3.6063 1.9151-6.8846 3.3445-9.9992 4.3599-.07-.7171-.1401-1.4343-.2101-2.149l-.0458-.4689c-.74-7.7515-1.5042-15.7656-1.5188-23.6476-.0025-1.335-.9546-2.1634-2.4829-2.1634-1.1858 0-2.4733.5114-3.2783 1.3018-.5566.5465-.8508 1.1954-.8488 1.8701.0146 7.6767.745 15.4544 1.4513 22.9789l.0649.6909c.0484.5016.0962 1.0061.1446 1.5076-2.6562-.6583-5.0479-1.0936-7.2896-1.3349-.80243-.0851-1.53536-.1276-2.24412-.1276-1.71875 0-3.17959.2463-4.46462.7547-1.79583.7103-3.194201 2.2673-3.4833458 3.8767-.1566622.8804-.06296719 2.1778 1.2799958 3.3609 1.31375 1.1549 2.85669 1.3112 4.19462 1.3112.42918 0 .87046-.0168 1.29712-.0356.25288-.0094.50878-.0213.76417-.0262 3.83038-.0994 7.31378-.4165 10.62578-.968.7426 7.1481 1.615 14.7863 2.7434 23.9746.1592 1.2968 1.1959 2.104 2.7046 2.104 1.2366 0 2.5141-.5297 3.2566-1.3512.5012-.556.7234-1.2024.6413-1.8721-1.1067-9.0107-2.0175-16.9917-2.7817-24.3816 2.9504-.9066 6.0338-2.1516 9.3917-3.7966.0267 1.3087-.0458 2.6367-.1133 3.9291-.0192.3858-.0408.7691-.0579 1.153-.0192.4189-.0414.8403-.063 1.2661-.205 3.9881-.4363 8.5068 1.0342 12.3979 1.0054 2.6604 3.3725 4.2511 6.3324 4.2511 1.8729 0 3.7579-.6415 5.3084-1.8033 4.0883-3.072 5.867-8.2155 7.1813-13.3183.205-.7953.4-1.6144.5833-2.4542.1668.4377.3355.8991.5063 1.3844-.1375.5158-.2675 1.0391-.3859 1.5575-.9445 4.168-1.7137 8.9395-.2604 12.746.5783 1.5125 1.9142 2.381 3.6642 2.381.6412 0 1.3016-.1137 1.9625-.3388 2.1359-.7246 3.5096-2.5541 3.8642-5.1479.545-3.9904-.6559-8.2797-2.0537-12.3295.617-1.8439 1.4099-3.4746 2.3549-4.8496l.0192-.0287c.2992-.4353.2992-.4353.4775-.6247l.1688-.18c.1591-.1726.3445-.3408.5062-.4902.0413-.0381.0746-.0687.1013-.0945l.0362-.0262c.1638-.1206.3446-.227.5184-.3338.0312-.0114.07-.0282.1153-.0475.0413-.0163.128-.0425.2076-.0663l.1375-.0188c.1083-.0143.2121-.0287.3058-.0499h.005c.5088 0 .9133.1038 1.4392.3694.7909.4002 1.2704.8686 1.9817 1.7064.8367.9823 1.5716 2.199 2.1862 3.6141-1.2654 3.6265-1.8009 7.9483-1.4729 11.8889.142 1.7113.3884 3.4934 1.2074 4.9233.7808 1.3611 2.0442 2.109 3.5579 2.109.8508 0 1.755-.2439 2.618-.7029 3.6858-1.969 3.0521-7.8677 2.7096-11.0371-.3204-2.98-.9158-5.6993-1.7697-8.0853.5138-1.1975 1.3788-2.5423 2.1409-3.3183.1688-.1702.3471-.3314.5521-.5065.1013-.0519.2509-.1494.5279-.3363.1134-.0757.2196-.1465.2675-.1776.1395-.0618.2821-.1207.4241-.1726.0605-.0238.1204-.0426.1809-.0619.065-.0094.1662-.0331.4095-.0944.065-.0168.1204-.0312.1375-.0356.2242-.0426.528-.0688.8317-.0688.27 0 .4554.0188.5304.0356.1713.0376.198.045.5904.2696.1496.0851.2554.1706.5642.4758 2.3479 2.3336 2.8567 6.7385 3.228 9.9549l.0075.0732c.3083 2.6699.398 5.4036.4846 8.0478.0363 1.0792.07 2.1584.1204 3.2357.0605 1.3255 1.0438 2.1491 2.5671 2.1491 1.2029 0 2.4854-.5184 3.2662-1.3206.5375-.5515.805-1.2004.7737-1.8771-.0458-.9823-.0821-1.9626-.1178-2.9444-.1492-4.2002-.3103-8.5364-1.1707-12.7707zm-53.5951 13.2738c.1158 0 .1904.04.1954.0425l-.1954.3002zm41.5079-18.4573-.1617-.4352c.0146-.0025.0388-.0094.0554-.0119l.3738-.0732c.0483.2384-.0988.4516-.2675.5203z"/><path clip-rule="evenodd" d="m33.4326 33.0903c.2413.9418 1.143 1.4819 2.4759 1.4819.5738 0 1.1934-.1064 1.6538-.2864 1.417-.549 2.6587-1.8533 2.232-3.529l-1.08-4.2398c-.2388-.9417-1.1425-1.4818-2.4759-1.4818-.5737 0-1.1933.1063-1.6537.2864-1.4175.549-2.6587 1.8533-2.2321 3.529z" fill-rule="evenodd"/><path d="m173.295 42.8033c-.637-.6984-1.615-1.0511-2.907-1.0511-1.388 0-2.758.0144-4.081.0307-1.31.0144-2.549.0287-3.79.0287-.115 0-.231 0-.347 0l1.442-17.655.88-10.774.011-.135c.102-1.2306-.339-1.9809-.727-2.3929-.519-.5515-1.275-.8547-2.133-.8547-1.297 0-2.721.6697-3.91 1.8365l-1.569 1.5407c-10.381 10.1918-20.185 19.8208-30.963 30.0102l-.186.1751c-1.012.9585-1.335 2.4785-.8 3.7803.48 1.1692 1.562 1.8958 2.823 1.8958h.077c4.816-.1063 9.353-.2176 13.74-.322 4.154-.0994 8.44-.2038 12.97-.3052-.179 2.1753-.359 4.3338-.537 6.4922-.246 2.9662-.492 5.9319-.741 8.947-.157 1.9097-.169 2.0566-.19 2.2979-.02.2176-.044.511-.188 2.2366-.096 1.1549.264 2.2322 1.014 3.032.745.7928 1.802 1.2469 2.901 1.2469 1.737 0 3.606-1.2306 3.867-3.9786.356-4.3768.61-7.4488.863-10.5188.241-2.935.482-5.8675.814-9.9268 1.191-.0237 2.563-.0494 3.936-.0732 1.7-.0311 3.457-.0618 4.822-.0925 2.718-.0613 3.466-1.652 3.613-2.975.111-1.0071-.132-1.8687-.704-2.4958zm-.316 1.3987c-.156-.5989-.563-1.0654-1.28-1.3087.717.2438 1.124.7103 1.28 1.3087zm-2.591-1.4957c-1.791 0-3.525.0213-5.232.0376 1.707-.0163 3.438-.0376 5.232-.0376zm-6.93-30.4647c-.025-.0901-.078-.1539-.112-.2345.034.0831.087.1449.112.2345zm-.354-.6742c-.063-.0732-.145-.1207-.22-.1825.074.0613.157.1088.22.1825zm-.579-.4239c-.095-.0425-.201-.0638-.303-.09.105.0262.209.0475.303.09zm-.75-.1681c-.137-.007-.282 0-.427.0143.098-.0099.203-.0381.296-.0381.047 0 .083.0213.131.0238zm-2.49.8215c-.292.2013-.584.4353-.866.7122.282-.2745.572-.5084.866-.7122zm1.728-.7647c-.167.0332-.34.0925-.513.1539.173-.0614.344-.1207.513-.1539zm-.851.2721c-.193.085-.388.2013-.583.3195.195-.1157.388-.2315.583-.3195zm-25.69 30.7536c.008.0237.024.0381.034.0618-.01-.0242-.029-.0385-.034-.0618zm20.386-6.2345c-.161 1.9576-.325 3.9153-.484 5.87-1.328-.0287-2.647-.0618-3.963-.0925-4.476-.1088-9.107-.2201-13.931-.2201-.07 0-.137 0-.208 0 6.184-5.593 12.746-11.4867 19.551-17.335-.313 3.9406-.644 7.9172-.965 11.7776zm-5.722 6.7029c-1.193-.0287-2.389-.0569-3.592-.0826 1.203.0262 2.399.0519 3.592.0826zm-5.407-.1162c-1.02-.0188-2.042-.0356-3.076-.0495 1.034.0144 2.056.0307 3.076.0495zm-5.096-.0614c-1.265-.0099-2.529-.0168-3.83-.0099.561-.0019 1.12-.0044 1.675-.0044.73.0005 1.437.0099 2.155.0143zm-3.96-.0588c-.027-.0144-.063-.0119-.085-.0332.022.0188.055.0188.085.0332zm-.201-.419c.003-.0212-.005-.0405 0-.0618-.005.0213.003.0431 0 .0618zm20.097 29.6126c-.072-.043-.144-.0831-.214-.133.07.0499.143.0925.214.133zm.516.2409c-.079-.0282-.157-.0564-.236-.0925.077.0336.157.0643.236.0925zm.01-29.1249c.024-.0138.043-.0114.065-.0282-.024.0144-.044.0144-.065.0282zm1.796-20.4169c.027.0495.038.1207.031.2226.01-.1019-.002-.1751-.031-.2226zm-.309-.0187c.022-.0119.038-.0094.06-.0188-.022.0094-.038.0069-.06.0188zm.186-.0545c.035 0 .057.0263.082.0451-.025-.0188-.048-.0426-.082-.0451zm-31.08 22.1401c-.181.1702-.328.3645-.444.5678.116-.2057.263-.3976.444-.5678zm-.532.7998c-.058.135-.126.2695-.16.412.034-.142.099-.2745.16-.412zm-.189.7058c-.014.1276-.038.2532-.034.3813-.004-.1286.022-.2562.034-.3813zm.555 1.8414c.077.0876.147.1845.238.2577-.091-.0732-.161-.1701-.238-.2577zm-.54-1.1692c.019.1206.026.2463.063.362-.035-.1162-.044-.2389-.063-.362zm.19.6316c.048.1088.089.2201.155.3195-.068-.0994-.107-.2127-.155-.3195zm1.866 1.2261c-.133 0-.243-.0406-.367-.0593.138.0237.268.0638.422.0593-.019 0-.036 0-.055 0zm-1.015-.2864c.106.0594.202.1301.32.1702-.118-.0401-.214-.1088-.32-.1702zm27.378 22.197c-.034-.0732-.073-.142-.102-.2201.029.0781.068.1469.102.2201zm-.249-.8428c.01.0756.034.1419.048.2131-.017-.0737-.039-.1375-.048-.2131zm.41 1.1648c.043.0712.096.135.146.2013-.05-.0663-.103-.1306-.146-.2013zm.357.4614c.057.0614.12.1133.183.1682-.06-.0544-.126-.1068-.183-.1682zm2.022.9136c.09.0049.179.0074.267.0024-.04.0025-.084.0119-.125.0119-.048 0-.094-.0119-.142-.0143zm-.557-.0802c.082.0188.166.0352.249.05-.085-.0124-.167-.0287-.249-.05zm1.345.0089c-.096.0238-.19.0406-.289.052.099-.0114.196-.0282.289-.052zm.227-.0613c.094-.0311.185-.0687.277-.1113-.092.0431-.183.0806-.277.1113zm.489-.2151c.09-.05.174-.1113.258-.1732-.084.0619-.168.1207-.258.1732zm.446-.322c.082-.0732.158-.1588.232-.2439-.075.0851-.15.1707-.232.2439zm.591-.7553c-.063.1118-.126.225-.198.322.072-.097.135-.2102.198-.322zm.364-.8898c.062-.2414.11-.502.136-.7859-.026.2844-.074.5445-.136.7859zm-.236.6652c.062-.133.111-.2839.158-.4332-.05.1493-.098.3002-.158.4332z"/></g></svg>