<svg fill="none" height="100" viewBox="0 0 300 100" width="300" xmlns="http://www.w3.org/2000/svg" xmlns:xlink="http://www.w3.org/1999/xlink"><clipPath id="a"><path d="m0 33.83h300v33h-300z"/></clipPath><g clip-path="url(#a)" clip-rule="evenodd" fill="#1d1d1d" fill-rule="evenodd"><path d="m84.3239 34.6531v28.5394h-4.8684v-24.0781h-2.9895v-4.4613z"/><path d="m79.8148 62.837h4.1483v-27.8293h-7.1372v3.7518h2.9889zm4.8684.7107h-5.5879v-24.0781h-2.9895v-5.1719h8.5774z"/><path d="m100.83 34.7313.317 3.8867c.741-1.0775 1.791-2.0433 3.148-2.8954 1.341-.8346 2.849-1.3041 4.524-1.4086.141-.0176.279-.0261.411-.0261h.41c1.111 0 2.117.1476 3.016.4434 1.146.3656 2.073.8959 2.778 1.5914.723.713 1.323 1.5743 1.8 2.5826.476 1.0088.819 2.0955 1.031 3.261.212 1.1474.318 2.3998.318 3.7561v17.3222h-5.265v-17.3483c0-.956-.089-1.7912-.265-2.5042-.194-.8-.467-1.4954-.82-2.087-.37-.6256-.9-1.1213-1.588-1.4869-.687-.3651-1.516-.5479-2.487-.5479-1.499 0-2.822.5655-3.969 1.6958-1.145 1.131-2.098 2.4873-2.857 4.0695v18.1567h-5.2912l-.0265-28.461z"/><path d="m113.678 62.8899h4.545v-16.9674c0-1.3314-.106-2.5735-.313-3.6929-.204-1.1261-.541-2.1945-1.003-3.1749-.457-.9681-1.039-1.8015-1.727-2.4812-.664-.6529-1.55-1.1595-2.636-1.5032-.862-.2843-1.839-.427-2.904-.427h-.41c-.116 0-.239.0066-.364.0237-1.629.1008-3.095.5569-4.377 1.3563-1.309.8205-2.334 1.7608-3.045 2.7945l-.575.8346-.371-4.5657h-4.1243l.0265 27.7503h4.5718l.035-17.9532c.772-1.6126 1.757-3.015 2.927-4.1691 1.211-1.1941 2.632-1.7985 4.224-1.7985 1.028 0 1.921.1981 2.659.5904.742.3942 1.324.939 1.727 1.6199.369.6202.658 1.3551.86 2.1836.181.7374.274 1.6084.274 2.5863zm5.265.71h-5.985v-17.7035c0-.9208-.086-1.7354-.255-2.4187-.184-.7628-.447-1.4328-.78-1.9916-.337-.5673-.823-1.0234-1.448-1.3551-.63-.334-1.409-.5047-2.317-.5047-1.414 0-2.628.5199-3.715 1.5907-1.094 1.0788-2.019 2.3895-2.751 3.8983v18.4324h-6.0119l-.0265-29.1711h5.5074l.27 3.2884c.704-.8181 1.6-1.5701 2.672-2.2412 1.387-.8644 2.967-1.3563 4.694-1.4632.132-.0183.285-.0274.433-.0274h.41c1.143 0 2.196.1549 3.129.4616 1.191.3784 2.175.9433 2.92 1.677.748.7374 1.377 1.6406 1.871 2.6835.488 1.0374.844 2.1635 1.059 3.3479.215 1.1595.324 2.4454.324 3.8193z"/><path d="m175.511 41.1745c-1.041-1.3563-2.611-2.0348-4.71-2.0348-1.358 0-2.549.3656-3.572 1.0963-1.04.7301-1.807 1.626-2.301 2.6865-.511 1.0781-.803 2.2261-.874 3.4439l13.124.0522c-.089-2.1392-.644-3.8872-1.667-5.2441zm-15.531.6007c.935-2.296 2.354-4.1133 4.26-5.4526 1.922-1.3393 4.224-2.0086 6.905-2.0086 1.588 0 3.043.2782 4.366.8352 1.323.5563 2.398 1.2949 3.227 2.2169.847.939 1.561 2.0348 2.143 3.2872.565 1.2172.971 2.5128 1.218 3.8867.246 1.3739.371 2.7569.371 4.1478 0 .226-.01.4872-.028.783-.017.2958-.043.6347-.078 1.0173h-18.574c.071 2.8171.697 4.974 1.878 6.4693 1.165 1.496 2.849 2.2437 5.053 2.2437 3.105 0 5.566-1.4698 7.383-4.409l3.889 2.6871c-1.323 2.2607-2.866 3.8873-4.63 4.8779-1.782.9919-4.11 1.4875-6.985 1.4875-2.046 0-3.845-.4173-5.398-1.2524-1.587-.8522-2.822-1.9564-3.704-3.3127-.917-1.4091-1.596-2.9045-2.036-4.4874-.459-1.6521-.689-3.3303-.689-5.0346l.027.0783c0-3.0606.467-5.7483 1.402-8.0606z"/><path d="m164.444 46.013 12.355.0486c-.133-1.889-.662-3.4603-1.576-4.6739-.978-1.2737-2.424-1.892-4.421-1.892-1.274 0-2.405.3456-3.362 1.0277-.986.6918-1.72 1.5488-2.185 2.5474-.437.9202-.71 1.9078-.811 2.9422zm13.109.761-13.88-.054.021-.3742c.075-1.2609.38-2.4636.907-3.5745.519-1.1091 1.331-2.0608 2.42-2.8243 1.078-.7702 2.352-1.1614 3.781-1.1614 2.208 0 3.889.7326 4.996 2.1763l.001.0012c1.062 1.4092 1.648 3.2386 1.739 5.441zm-18.642 3.0655c.008 1.6375.236 3.2714.676 4.8585.43 1.5446 1.102 3.0206 1.992 4.389.845 1.2998 2.048 2.3743 3.574 3.193 1.491.803 3.249 1.2094 5.225 1.2094 2.8 0 5.089-.4853 6.807-1.4408 1.626-.9141 3.082-2.4149 4.33-4.4661l-3.309-2.2856c-1.858 2.8262-4.375 4.259-7.484 4.259-2.313 0-4.109-.8017-5.339-2.3828-1.223-1.5488-1.881-3.7955-1.954-6.6764l-.008-.3632h18.612c.022-.2496.037-.4786.05-.6851.016-.2861.027-.54.027-.7599 0-1.3636-.125-2.7393-.366-4.0859-.24-1.3356-.64-2.6148-1.19-3.8029-.564-1.2111-1.265-2.2874-2.085-3.1985-.791-.8776-1.832-1.5931-3.099-2.1258-1.271-.5345-2.692-.806-4.225-.806-2.591 0-4.844.6529-6.697 1.943-1.84 1.2944-3.229 3.0746-4.133 5.294-.914 2.2589-1.377 4.9278-1.377 7.9289zm11.467 14.3599c-2.098 0-3.972-.4355-5.57-1.2956-1.634-.8764-2.924-2.0317-3.835-3.4335-.931-1.4274-1.631-2.9696-2.081-4.584-.464-1.6752-.701-3.4008-.701-5.1288l.027-.0042c.009-3.0595.489-5.7872 1.428-8.1105.955-2.3482 2.43-4.2341 4.384-5.6086 1.978-1.377 4.372-2.0749 7.115-2.0749 1.63 0 3.148.2898 4.508.8637 1.364.5728 2.493 1.3497 3.355 2.3069.866.9639 1.606 2.0979 2.201 3.374.576 1.244.995 2.5808 1.243 3.9736.25 1.3885.378 2.8061.378 4.211 0 .2314-.01.4987-.027.8012-.02.3012-.045.645-.081 1.0319l-.032.3219h-18.527c.111 2.5492.713 4.5311 1.79 5.8953 1.103 1.4189 2.661 2.1071 4.769 2.1071 2.997 0 5.311-1.3867 7.073-4.2384l.2-.3231 4.475 3.0916-.165.2812c-1.349 2.3051-2.951 3.9906-4.764 5.0085-1.827 1.018-4.236 1.5337-7.163 1.5337z"/><path d="m.360474 34.681h16.381126v.758h-7.69037v27.7534h-.82669v-27.7534h-7.864066z"/><path d="m8.5848 62.8371h.10658v-27.7528h7.68972v-.0486h-15.660977v.0486h7.864677zm.8267.7106h-1.54682v-27.7534h-7.86468v-1.4686h17.1012v1.4686h-7.6897z"/><path d="m23.9873 34.681h.8267v13.4591h15.3234v-13.4591h.884v28.5114h-.884v-14.2372h-15.3234v14.2372h-.8267z"/><path d="m40.4977 62.8371h.1632v-27.8014h-.1632v13.4597h-16.0436v-13.4597h-.1065v27.8014h.1065v-14.236h16.0436zm.8833.7106h-1.6034v-14.2366h-14.6033v14.2366h-1.5475v-29.222h1.5475v13.4597h14.6033v-13.4597h1.6034z"/><path d="m50.8817 34.681h15.1503l-.0388.8151h-14.2848v12.7199h12.4201l-.0382.8157h-12.3819v13.3456h14.4967l-.0388.8151h-15.2846z"/><path d="m51.2416 62.8371h14.5811l.0049-.1051h-14.4788v-14.0562h12.3986l.0043-.1038h-12.4029v-13.4312h14.3002l.0062-.1051h-14.4136zm15.2698.7106h-15.9899v-29.222h15.8877l-.0703 1.5251h-14.27v12.0111h12.4368l-.0715 1.524h-12.3653v12.6361h14.5134z"/><path d="m223.403 34.681h.826v27.7534h13.651l-.038.758h-14.439z"/><path d="m223.762 62.8371h13.737l.003-.048h-13.633v-27.7534h-.107zm14.423.7106h-15.143v-29.222h1.547v27.7528h13.67z"/><path d="m245.644 63.1924h.827v-28.5114h-.827z"/><path d="m246.046 62.8371h.113v-27.802h-.113zm-.762.7106h1.636v-29.222h-1.636z"/><path d="m254.966 59.5717c.897 1.0611 1.987 1.8829 3.269 2.4641 1.268.5685 2.608.8534 4.018.8534 2.127 0 3.819-.6007 5.075-1.8015 1.257-1.2002 1.885-2.8875 1.885-5.0614 0-2.0596-.768-3.6394-2.304-4.7394-.588-.4422-1.363-.8589-2.323-1.2506-.218-.0887-.458-.1804-.72-.2752-.262-.0947-.56-.1992-.893-.3128-.652-.2272-1.209-.4167-1.67-.5691-.23-.0753-.477-.164-.739-.2654-.263-.1009-.541-.2145-.835-.3408-.576-.2399-1.082-.4865-1.517-.7392-.397-.2399-.819-.5564-1.267-.9481-.41-.3663-.755-.7775-1.037-1.2324-.264-.4167-.488-.9348-.673-1.5543-.167-.5813-.25-1.2446-.25-1.9904 0-2.1994.622-4.0003 1.866-5.4028 1.23-1.403 2.941-2.104 5.133-2.104 1.294 0 2.519.2843 3.672.8528 1.166.5813 2.141 1.3648 2.923 2.3506l-.635.4738c-.795-.922-1.699-1.6424-2.711-2.1611-1.012-.5047-2.089-.758-3.23-.758-1.358 0-2.518.3219-3.479.9663-.962.6451-1.654 1.4602-2.078 2.446-.422.9858-.634 2.0918-.634 3.3175 0 1.3904.326 2.5092.981 3.3553.64.8467 1.544 1.5543 2.71 2.1234.615.2909 1.705.7076 3.269 1.2512.769.2654 1.436.509 2 .7295.564.2217 1.025.4203 1.384.597 2.589 1.264 3.884 3.3304 3.884 6.1991 0 2.3384-.694 4.1897-2.08 5.5545s-3.298 2.0475-5.737 2.0475c-1.54 0-3.022-.3164-4.446-.9475-1.412-.6323-2.58-1.5233-3.503-2.6731z"/><path d="m254.805 60.1025c.844.9609 1.893 1.7238 3.121 2.2747 1.371.6073 2.817.9153 4.298.9153 2.329 0 4.172-.6536 5.482-1.943 1.31-1.2901 1.973-3.0753 1.973-5.3038 0-2.749-1.205-4.6726-3.684-5.8819-.357-.1749-.813-.3717-1.356-.5837-.561-.2205-1.224-.4616-1.987-.7258-1.567-.5449-2.68-.9707-3.305-1.2658-1.216-.5941-2.171-1.3424-2.842-2.2316-.699-.9032-1.053-2.104-1.053-3.5672 0-1.2646.223-2.4283.662-3.456.45-1.0459 1.193-1.9212 2.207-2.6009 1.017-.6821 2.255-1.0277 3.682-1.0277 1.192 0 2.334.2679 3.394.7963.957.4908 1.829 1.1607 2.596 1.9959l.07-.0516c-.706-.8127-1.57-1.4754-2.569-1.9746-1.096-.5394-2.278-.8139-3.51-.8139-2.073 0-3.708.6669-4.86 1.98-1.18 1.3314-1.778 3.0704-1.778 5.172 0 .71.078 1.3465.235 1.8944.172.5801.387 1.0733.633 1.462.266.4282.592.8163.973 1.1565.428.3759.837.6827 1.214.9098.418.2412.913.4841 1.469.7143.292.1263.566.2381.825.3383.256.0984.497.1847.722.2582.463.1512 1.02.3425 1.676.5715.333.1136.635.2175.898.3146.266.0954.511.1883.733.2788.983.4009 1.792.8376 2.404 1.2968 1.62 1.1607 2.444 2.8529 2.444 5.0219 0 2.2637-.671 4.0525-1.992 5.3177-1.32 1.2603-3.114 1.8999-5.328 1.8999-1.454 0-2.856-.2982-4.166-.885-1.228-.5563-2.297-1.3344-3.185-2.3178zm7.419 3.9c-1.584 0-3.129-.3286-4.595-.9779-1.459-.6541-2.683-1.5883-3.637-2.7782l-.243-.3024 1.286-.8455.208.2454c.858 1.0161 1.916 1.8136 3.143 2.3688 1.214.5448 2.515.8206 3.866.8206 2.022 0 3.645-.571 4.826-1.7001 1.177-1.1243 1.774-2.743 1.774-4.8069 0-1.957-.704-3.4135-2.154-4.4522-.569-.427-1.324-.8321-2.25-1.2093-.214-.0874-.447-.1773-.705-.269-.263-.0954-.558-.1999-.887-.3122-.653-.2272-1.207-.4161-1.667-.5667-.236-.0796-.488-.1683-.757-.2721-.265-.1027-.548-.2175-.846-.345-.581-.2418-1.106-.4981-1.556-.7587-.418-.2526-.863-.5843-1.324-.9906-.435-.3869-.805-.8279-1.106-1.312-.278-.4397-.518-.9931-.712-1.6393-.174-.6129-.263-1.315-.263-2.09 0-2.279.658-4.1746 1.954-5.6366 1.295-1.4772 3.113-2.2255 5.405-2.2255 1.345 0 2.634.2995 3.833.8898 1.209.602 2.233 1.4262 3.045 2.4496l.225.2843-1.197.8947-.221-.2551c-.759-.8838-1.636-1.5829-2.601-2.0779-.955-.4756-1.987-.7167-3.065-.7167-1.28 0-2.382.3049-3.277.905-.899.6007-1.555 1.3721-1.948 2.2898-.402.9391-.606 2.0087-.606 3.1791 0 1.3035.305 2.3603.908 3.1402.605.7999 1.473 1.4796 2.583 2.019.598.2842 1.684.6991 3.228 1.2354.775.2679 1.446.512 2.015.7356.561.2192 1.035.4245 1.41.6086 2.709 1.3216 4.084 3.5143 4.084 6.5172 0 2.4241-.736 4.3787-2.185 5.8061-1.449 1.4267-3.465 2.1507-5.991 2.1507z"/><path d="m275.247 34.681h16.381v.758h-7.691v27.7534h-.826v-27.7534h-7.864z"/><path d="m283.472 62.8371h.104v-27.7528h7.692v-.0486h-15.661v.0486h7.865zm.824.7106h-1.545v-27.7534h-7.865v-1.4686h17.102v1.4686h-7.692z"/><path d="m134.924 34.608v11.7329c.18-.2545.383-.5181.609-.7914.226-.274.468-.5698.725-.8874.517-.6232.846-1.0046.987-1.145l2.787-3.1098 5.204-5.7993h6.715l-10.836 11.8094 11.281 16.8648h-6.347l-8.591-13.4312-2.496 2.5377-.019 10.8935h-5.147l-.019-28.6742z"/><path d="m146.248 62.9274h5.479l-11.066-16.544 10.478-11.4201h-5.741l-7.882 8.7889c-.107.1069-.349.3741-.979 1.1346-.256.3158-.498.6128-.726.8874-.218.2648-.416.5229-.592.7714l-.656.9208v-12.5031h-4.426l.019 27.9641h4.427l.02-10.6833 2.915-2.9635zm6.818.7101h-7.215l-.106-.1652-8.347-13.0492-2.075 2.1095-.02 11.1049h-5.867l-.019-29.3843h5.866v11.0357c.219-.2624.449-.5467.694-.8492.532-.6402.862-1.0234 1.014-1.1728l8.084-9.0137h7.687l-11.192 12.1994z"/><path d="m197.861 41.8421c.882 1.7007 1.413 2.7163 1.593 3.0467.129.2284.322.6535.579 1.2755.143.3304.249.5837.32.7617.07.1779.118.2921.144.3425l.154-.3808c.078-.1901.181-.4379.31-.7422.244-.6092.418-1.0095.521-1.1996l5.426-10.3013h5.736l-9.694 17.3652v11.2725h-5.137v-11.2342l-9.733-17.4035h6.045c1.609 3.097 2.854 5.4962 3.736 7.1975z"/><path d="m198.173 62.9274h4.417v-11.0089l.045-.079 9.401-16.8404h-4.907l-5.327 10.1105c-.096.1762-.265.5661-.506 1.1656-.131.3092-.233.5558-.31.7441l-.453 1.1139-.358-.707c-.027-.0528-.08-.1773-.158-.3693-.07-.1773-.174-.4282-.315-.7543-.255-.6141-.443-1.0302-.563-1.2415-.183-.3353-.715-1.3533-1.599-3.0564v-.0012l-3.636-7.0044h-5.214l9.483 17.0481zm5.137.71h-5.857v-11.4984l-9.981-17.8494h6.872l3.837 7.3919c.881 1.6959 1.411 2.7084 1.59 3.0388.133.2345.329.6645.597 1.3089.046.1069.088.2072.126.2983.041-.0984.086-.2047.135-.3201.256-.6366.427-1.0289.538-1.2306l5.523-10.4872h6.564l-9.944 17.8117z"/><path d="m293.851 34.0673h2.303v.373h-.935v3.1305h-.414v-3.1305h-.954z"/><path d="m296.622 34.0673h.446l1.054 2.183 1.036-2.183h.454v3.5035h-.402v-2.7157l-.042.1142-.914 1.8908h-.27l-.908-1.8908-.053-.1142v2.7157h-.401z"/></g></svg>