<svg fill="none" height="100" viewBox="0 0 300 100" width="300" xmlns="http://www.w3.org/2000/svg" xmlns:xlink="http://www.w3.org/1999/xlink"><clipPath id="a"><path d="m0 0h300v100h-300z"/></clipPath><g clip-path="url(#a)" fill="#000"><path d="m283.058 42.3725c1.332.7613 2.474 2.0938 3.426 3.4262.762 1.3324 1.333 3.0455 1.142 4.5683 0 1.7131-.38 3.2358-1.142 4.5683-.761 1.3324-1.903 2.6648-3.426 3.4262-1.333.7614-2.855 1.3324-4.568 1.1421-1.713 0-3.236-.3807-4.569-1.1421-1.332-.7614-2.665-1.9035-3.426-3.4262-.761-1.5228-1.142-3.0456-1.142-4.7587 0-2.4745.952-4.949 2.665-6.6621s3.997-2.6648 6.472-2.6648c1.713.1903 3.235.7614 4.568 1.5228zm-16.37 27.9808h3.046v-12.3725c1.142 1.3324 2.474 2.6648 4.187 3.4262 4.569 2.0938 9.898 1.1421 13.515-2.4745 2.284-2.2841 3.616-5.52 3.426-8.7559 0-3.2358-1.142-6.2814-3.426-8.5655-2.094-2.2842-5.33-3.6166-8.375-3.6166-1.713 0-3.617.3807-5.14 1.1421-1.522.9517-3.045 2.0938-3.997 3.6166v-3.807h-3.045v31.4071zm-24.745-20.367c-.19 2.4745.191 4.949 1.142 7.4235.762 1.5227 1.904 2.8551 3.427 3.8069 1.713.9517 3.806 1.5227 5.71 1.3324 1.903 0 3.997-.3807 5.52-1.3324 1.523-.9518 2.665-2.2842 3.426-3.8069.762-2.2842 1.142-4.7587 1.142-7.2332v-11.4207h-3.045v10.8497c.19 1.9034 0 3.8069-.381 5.7104-.381 1.3324-1.332 2.4745-2.474 3.2358-1.333.7614-2.665 1.3325-4.188 1.1421-1.523 0-3.046-.3807-4.188-1.1421-1.142-.7613-2.093-1.9034-2.474-3.4262-.381-1.7131-.571-3.6166-.381-5.52v-10.6594h-3.045zm-8.565-6.0911c1.713 1.7131 2.665 4.1876 2.665 6.6621 0 1.7131-.381 3.2359-1.143 4.5683-.761 1.3324-1.903 2.4745-3.235 3.4262-2.856 1.5228-6.282 1.5228-9.137 0-1.332-.7613-2.474-1.9034-3.236-3.4262-.761-1.3324-1.142-3.0455-1.142-4.5683 0-2.4745.952-4.949 2.665-6.6621 3.426-3.4262 8.946-3.6165 12.372-.3807 0 .1904 0 .3807.191.3807zm-15.228-1.7131c-2.094 2.2842-3.236 5.3297-3.236 8.3752 0 3.2359 1.142 6.0911 3.426 8.3752 4.759 4.7587 12.563 4.7587 17.322 0 2.094-2.2841 3.426-5.3297 3.426-8.3752s-1.142-6.091-3.236-8.3752c-4.568-4.949-12.182-5.1393-17.131-.7614-.19.3807-.381.5711-.571.7614zm-13.895 19.796h3.045v-7.8042c-.19-2.6649 0-5.3297.571-7.9945.381-1.5228 1.142-2.8552 2.094-3.8069.762-.7614 1.713-1.1421 2.855-1.1421.571 0 1.142.1903 1.523.3807l1.523-2.4745c-.761-.571-1.713-.7614-2.665-.7614-1.142 0-2.284.3807-3.236.9517-1.142.7614-2.094 1.9035-2.855 3.0456v-3.4263h-3.046zm-10.85-30.4553c-2.474-1.1421-4.949-1.5228-7.423-1.5228-3.236 0-6.282.7614-8.947 2.0938-2.474 1.3324-4.568 3.4262-6.091 5.9007-1.522 2.4745-2.284 5.3297-2.284 8.1849 0 3.8069 1.333 7.6138 3.807 10.469 3.426 3.9972 8.566 6.091 13.705 5.9007 4.188.1903 8.375-1.3324 11.421-4.1876 2.855-3.0455 4.378-7.2331 4.187-11.4207h-13.324v3.0455h9.898c-.381 2.8552-1.713 5.3297-3.997 7.0428s-5.139 2.6648-7.995 2.6648c-2.474 0-5.139-.571-7.233-1.7131s-3.997-2.8552-5.139-4.949c-1.333-2.0938-1.904-4.3779-1.904-6.6621 0-2.2841.762-4.5683 1.904-6.4717 1.142-2.0938 2.855-3.8069 4.949-4.949s4.568-1.9035 7.043-1.9035c2.093 0 4.187.3807 6.091 1.3324 2.094.9518 3.997 2.0938 5.71 3.807l2.475-2.2842c-2.094-1.9034-4.378-3.4262-6.853-4.3779z"/><path d="m146.2 61.9786h5.71v-10.6593l9.898 10.6593h7.233l-11.04-11.9917 9.898-11.0401h-7.233l-8.566 9.5173v-18.4635h-5.71zm-7.614-22.2704c-1.904-.9517-3.997-1.3324-6.091-1.3324-2.284 0-4.568.571-6.662 1.5227-5.901 3.2359-7.995 10.469-4.949 16.3698.571.9517 1.142 1.9034 1.903 2.6648 2.475 2.4745 5.901 3.8069 9.518 3.6166 3.997.1903 7.994-1.5228 10.469-4.7587l-4.569-3.0455c-1.523 1.7131-3.807 2.8552-6.091 2.6648-1.903 0-3.807-.571-5.139-1.9034-1.333-1.3324-1.904-3.0456-1.904-4.7587 0-1.9034.571-3.6165 1.904-4.949 1.523-1.3324 3.236-1.9034 5.33-1.9034 2.093 0 4.377.7614 5.71 2.4745l4.759-2.6649c-.952-1.7131-2.475-3.0455-4.188-3.9972zm-27.029 22.2704h5.71v-23.0318h-5.71zm-10.279-16.3697c1.142 1.3324 1.904 3.0455 1.904 4.949 0 1.9034-.571 3.6166-1.904 4.949-1.142 1.3324-2.855 1.9034-4.5681 1.9034s-3.2359-.571-4.378-1.9034c-1.3324-1.3324-1.9034-3.0456-1.9034-4.949 0-1.7131.571-3.6166 1.7131-4.949s2.8552-1.9035 4.3779-1.9035c1.7132 0 3.4263.5711 4.7585 1.9035zm1.523-4.1876c-.952-.9517-2.094-1.7131-3.4263-2.2841-1.142-.5711-2.4745-.7614-3.8069-.7614-2.8552 0-5.7103 1.142-7.6138 3.4262-2.0938 2.4745-3.2359 5.52-3.2359 8.7559s1.1421 6.2814 3.2359 8.5655c1.9035 2.2842 4.7586 3.4263 7.8042 3.4263 1.3324 0 2.4745-.1904 3.6165-.7614 1.3323-.5711 2.2843-1.3324 3.4263-2.2842v2.4745h5.71v-31.978h-5.71zm-28.1712 4.1876c1.3324 1.3324 1.9035 3.0455 1.9035 4.949 0 1.9034-.5711 3.6166-1.9035 4.949-1.1421 1.3324-2.8552 1.9034-4.5683 1.9034s-3.2359-.571-4.3779-1.9034c-1.1421-1.3324-1.9035-3.0456-1.7131-4.949 0-1.7131.571-3.6166 1.7131-4.949 1.142-1.3324 2.8551-1.9035 4.3779-1.9035 1.7131 0 3.4262.5711 4.5683 1.9035zm1.5228-4.1876c-.9518-.9517-2.0938-1.7131-3.4262-2.2841-1.1421-.5711-2.4745-.7614-3.807-.7614-2.8551 0-5.7103 1.142-7.6138 3.4262-2.0938 2.4745-3.2359 5.52-3.2359 8.7559-.1903 3.2359 1.1421 6.2814 3.2359 8.5655 1.9035 2.2842 4.7587 3.4263 7.8042 3.4263 1.3324 0 2.4745-.1904 3.8069-.7614 1.1421-.5711 2.2841-1.3324 3.2359-2.2842v2.4745h5.7103v-31.978h-5.7103zm-27.9808 4.1876c1.142 1.3324 1.9034 3.0455 1.7131 4.949 0 1.9034-.5711 3.6166-1.7131 4.949-1.1421 1.3324-2.8552 1.9034-4.5683 1.9034s-3.2359-.571-4.378-1.9034c-1.142-1.3324-1.9034-3.0456-1.9034-4.949 0-1.7131.571-3.6166 1.7131-4.949s2.8552-1.9035 4.5683-1.9035 3.4262.5711 4.5683 1.9035zm1.5227-4.1876c-.9517-.9517-2.0938-1.7131-3.4262-2.2841-1.1421-.5711-2.4745-.7614-3.8069-.7614-2.8552 0-5.7104 1.142-7.6138 3.4262-2.0938 2.4745-3.2359 5.52-3.2359 8.7559-.1903 3.2359 1.1421 6.2814 3.2359 8.5655 1.9034 2.2842 4.7586 3.4263 7.8042 3.4263 1.3324 0 2.4744-.1904 3.6165-.7614 1.3324-.5711 2.4745-1.3324 3.4262-2.2842v2.4745h5.7104v-23.0318h-5.7104zm-25.5063-9.7076c-2.4745-1.1421-4.9489-1.7131-7.6138-1.7131-2.8552 0-5.7104.7613-8.37519 2.2841-2.47449 1.3324-4.5683 3.2359-6.09106 5.7104-1.33242 2.6648-2.0938019 5.52-2.0938019 8.3752-.1903451 4.3779 1.5227619 8.7559 4.5682919 11.8014 3.23588 3.0455 7.42346 4.7587 11.99176 4.5683 2.4745 0 4.7586-.3807 7.0428-1.3324 2.4745-1.1421 4.7586-2.6649 6.4717-4.7587l-3.9972-4.1876c-1.3324 1.5228-2.8552 2.6649-4.7587 3.4263-1.5227.571-3.0455.9517-4.7586.9517-1.9034 0-3.8069-.3807-5.52-1.3324-1.52277-.9518-2.85519-2.2842-3.80692-3.8069-.95173-1.7132-1.33242-3.6166-1.33242-5.5201 0-5.7103 4.56834-10.469 10.27864-10.6593h.3807c3.6166 0 7.0428 1.7131 9.5173 4.5683l4.1876-3.9973c-1.7131-1.7131-3.8069-3.4262-6.0911-4.3779z"/><path d="m296.193 62.3589c2.094 0 3.807-1.7131 3.807-3.6166s-1.713-3.8069-3.617-3.8069c-1.903 0-3.806 1.7131-3.806 3.6166 0 2.0938 1.713 3.8069 3.616 3.8069z"/></g></svg>