<svg fill="none" height="100" viewBox="0 0 300 100" width="300" xmlns="http://www.w3.org/2000/svg" xmlns:xlink="http://www.w3.org/1999/xlink"><clipPath id="a"><path d="m0 0h300v100h-300z"/></clipPath><g clip-path="url(#a)" fill="#1d1d1d"><path d="m0 21.6675v-.1069c0-11.1889 8.62335-20.5606 20.8457-20.5606 12.2224 0 20.7388 9.2648 20.7388 20.4537v.1069c0 11.189-8.6233 20.5607-20.8457 20.5607-12.22235 0-20.7388-9.2648-20.7388-20.4538zm34.244 0v-.1069c0-7.7325-5.6301-14.14653-13.5052-14.14653-7.875 0-13.39826 6.30713-13.39826 14.03963v.1069c0 7.7326 5.63016 14.0754 13.50516 14.0754 7.9107 0 13.3983-6.2359 13.3983-13.9685z"/><path d="m48.4959 35.6362 4.2048-4.9887c3.8128 3.2783 7.6612 5.1669 12.543 5.1669 4.3117 0 7.0555-2.0311 7.0555-4.9887v-.1069c0-2.8507-1.6035-4.383-8.9797-6.0934-8.4808-2.0311-13.2201-4.5255-13.2201-11.866v-.1069c0-6.80604 5.6658-11.50969 13.5765-11.50969 5.8083 0 10.405 1.74605 14.4316 4.98872l-3.7415 5.27377c-3.5634-2.67251-7.1624-4.09786-10.797-4.09786-4.0979 0-6.4854 2.10239-6.4854 4.70366v.1069c0 3.0645 1.8173 4.4186 9.4786 6.2359 8.4095 2.0311 12.7212 5.06 12.7212 11.6522v.1069c0 7.4474-5.8439 11.866-14.1822 11.866-6.0934.0357-11.8304-2.0667-16.6053-6.3428z"/><path d="m88.9062 1.67655h17.8168c4.561 0 8.125 1.24718 10.405 3.52773 1.746 1.74606 2.673 3.91971 2.673 6.59222v.1069c0 4.7749-2.708 7.3406-5.666 8.8728 4.668 1.6035 7.875 4.2404 7.875 9.6567v.1069c0 7.0911-5.844 10.904-14.717 10.904h-18.3868zm23.9098 11.26025c0-3.13577-2.494-5.05999-6.984-5.05999h-10.0485v10.54759h9.5495c4.49 0 7.483-1.7461 7.483-5.3807zm-5.95 11.4028h-11.0825v10.9039h11.5815c4.774 0 7.661-1.8886 7.661-5.452v-.1069c0-3.3495-2.673-5.345-8.16-5.345z"/><path d="m129.564 21.6675v-.1069c0-11.1889 8.623-20.5606 20.846-20.5606 12.222 0 20.738 9.2648 20.738 20.4537v.1069c0 11.189-8.623 20.5607-20.845 20.5607-12.223 0-20.739-9.2648-20.739-20.4538zm34.244 0v-.1069c0-7.7325-5.63-14.14653-13.505-14.14653s-13.399 6.30713-13.399 14.03963v.1069c0 7.7326 5.631 14.0754 13.506 14.0754s13.398-6.2359 13.398-13.9685z"/><path d="m181.018 1.67655h17.71c4.989 0 8.909 1.46098 11.475 3.99097 2.102 2.17366 3.278 5.09558 3.278 8.58768v.1069c0 6.521-3.92 10.4407-9.443 12.0442l10.726 15.0375h-8.303l-9.764-13.8616h-8.73v13.8616h-6.949zm17.212 19.70545c4.988 0 8.195-2.6013 8.195-6.6279v-.1069c0-4.276-3.064-6.59222-8.231-6.59222h-10.156v13.32702z"/><path d="m223.494 1.67655h6.486l21.273 27.47355v-27.47355h6.877v39.76725h-5.844l-21.914-28.2932v28.2932h-6.878z"/><path d="m269.747 1.67655h29.469v6.23589h-22.485v10.33376h19.92v6.2715h-19.92v10.6902h22.77v6.2359h-29.754z"/><path d="m187.933 74.0486v-10.797h-6.877v10.797h-10.904v6.6992h10.904v10.8683h6.877v-10.8683h10.904v-6.6992z"/><path d="m216.225 77.5768v-.1069c0-11.2959 8.481-20.5606 20.49-20.5606 7.34 0 11.759 2.5656 15.572 6.2002l-4.49 5.1669c-3.172-2.9576-6.592-4.9531-11.118-4.9531-7.554 0-13.113 6.2359-13.113 14.0397v.1069c0 7.7681 5.523 14.0753 13.113 14.0753 4.882 0 8.018-1.9242 11.403-5.0956l4.49 4.5611c-4.134 4.3117-8.695 7.0555-16.142 7.0555-11.546-.0357-20.205-9.0866-20.205-20.4894z"/><path d="m258.415 77.5768v-.1069c0-11.189 8.624-20.5606 20.846-20.5606 12.223 0 20.739 9.2647 20.739 20.4537v.1069c0 11.189-8.623 20.5606-20.846 20.5606-12.222 0-20.739-9.2647-20.739-20.4537zm34.244 0v-.1069c0-7.7325-5.63-14.1466-13.505-14.1466-7.91 0-13.398 6.3072-13.398 14.0397v.1069c0 7.7325 5.63 14.0753 13.505 14.0753 7.911 0 13.398-6.2359 13.398-13.9684z"/></g></svg>