<svg fill="none" height="100" viewBox="0 0 300 100" width="300" xmlns="http://www.w3.org/2000/svg"><path clip-rule="evenodd" d="m20.6285 38.5539c.7692.7692 1.7947 1.111 2.8203 1.111 1.0255 0 1.9656-.3418 2.7347-1.0255l19.8271-18.6307c1.6238-1.5383 1.7093-4.1021.171-5.7259s-4.1022-1.7092-5.726-.1709l-17.0068 15.9813-16.5796-15.9813c-1.62377-1.5383-4.18762-1.4529-5.72593.0855-1.538314 1.6237-1.538314 4.1876.08546 5.7259zm123.2295 1.9405c0 6.4096 4.871 11.2809 11.281 11.2809 4.273 0 7.35-2.0511 9.315-4.5295l4.273 3.8458c-2.905 3.6749-7.777 6.3242-13.844 6.3242-10.256 0-17.435-7.5206-17.435-16.9214 0-9.4863 7.094-16.9214 17.349-16.9214 4.872 0 9.059 1.7947 12.05 4.7004l-4.102 4.3585c-1.965-1.9656-4.786-3.4185-8.033-3.4185-6.153 0-10.854 4.9568-10.854 11.281zm39.575 16.7758 14.102-32.9027h4.444l14.101 32.9027h-6.666l-3.077-7.2642h-13.161l-3.077 7.2642zm12.136-12.9047h8.375l-4.187-9.7426zm46.577 7.6915c-2.992 0-5.897-1.5383-7.777-3.5894l-4.017 4.3585c3.333 3.1621 7.435 4.9568 11.879 4.9568 5.897 0 11.11-4.1022 11.11-9.9136 0-6.5716-5.322-8.688-9.671-10.417-3.003-1.194-5.541-2.2034-5.541-4.3678 0-2.5639 2.649-3.5894 5.042-3.5894 2.222 0 4.444.9401 5.726 2.1365l3.333-4.7004c-3.162-2.3074-6.239-3.0766-9.572-3.0766-5.469 0-10.853 3.333-10.853 9.2299 0 3.7603 2.051 5.9823 4.615 7.5206 1.344.7909 2.86 1.3866 4.312 1.9578 3.257 1.2803 6.199 2.437 6.199 5.3919 0 2.3929-1.965 4.1022-4.785 4.1022zm25.208 5.2132 14.101-32.9028h4.444l14.101 32.9028h-6.666l-3.077-7.2643h-13.246l-3.077 7.2643zm20.51-12.9047-4.187-9.7427-4.188 9.7427zm-236.9798 21.7071c-1.111 0-2.1366-.4273-2.9057-1.2819-1.5383-1.6238-1.4529-4.1876.1709-5.7259l19.7416-18.6307c1.5384-1.4528 4.0167-1.4528 5.5551 0l19.3997 18.7161c1.6238 1.5383 1.6238 4.1022.0855 5.726-1.5383 1.6237-4.1021 1.6237-5.7259.0854l-16.5796-15.9813-16.9214 15.9813c-.7692.7692-1.7947 1.111-2.8202 1.111zm-30.2557-1.1108c.7692.7692 1.7947 1.111 2.8203 1.111 1.0255 0 1.9656-.3418 2.7347-1.111l19.9126-18.6306 7.6061-7.6915 16.9214-16.0668 16.5796 15.9813c1.6237 1.5383 4.1876 1.5383 5.7259-.0855 1.5383-1.6237 1.5383-4.1876-.0855-5.7259l-19.3998-18.6306c-1.5383-1.4529-4.0167-1.4529-5.555 0l-19.9125 18.7161-7.6061 7.6915-16.9214 15.9813-16.5796-15.9813c-1.62377-1.5383-4.18762-1.5383-5.72593.0855-1.538314 1.6237-1.538314 4.1876.08546 5.7259zm148.1905 21.7924v-12.5629h4.274c1.196 0 1.965.3419 2.563.8546.684.5983 1.026 1.4529 1.026 2.393 0 .8546-.427 1.7092-1.026 2.222 1.197.5982 2.051 1.8801 2.051 3.333 0 1.1964-.512 2.222-1.367 2.9057-.684.5127-1.453.8546-2.735.8546zm3.932-7.6061c1.025 0 1.453-.1709 1.709-.5128.256-.2564.427-.6837.427-1.111s-.171-.8546-.427-1.111c-.256-.3418-.684-.5127-1.709-.5127h-2.137v3.2475zm.598 5.9823c1.111 0 1.709-.2564 2.051-.6837.342-.3418.598-.9401.598-1.4528 0-.5128-.256-1.111-.598-1.4529-.427-.4273-.94-.6837-2.051-.6837h-2.735v4.2731zm15.303 1.7092v-5.8113l4.444-6.837h-2.052l-3.247 5.0423-3.248-5.0423h-2.051l4.359 6.837v5.8113zm26.658-2.7347h-1.281l-3.675-5.8114v8.5461h-1.795v-12.6483h1.282l4.871 7.6916 4.872-7.6916h1.281v12.6483h-1.794v-8.5461zm25.13-3.5893c0-3.6748-2.735-6.4951-6.324-6.4951-3.59 0-6.324 2.8203-6.324 6.4951 0 3.6749 2.734 6.4951 6.324 6.4951 3.589 0 6.324-2.8202 6.324-6.4951zm-1.795 0c0 2.7348-1.965 4.7859-4.529 4.7859-2.65 0-4.53-2.0511-4.53-4.7859s1.966-4.7858 4.53-4.7858 4.529 2.051 4.529 4.7858zm8.714 6.324v-12.6483h3.761c1.965 0 3.333.4273 4.358 1.1965 1.539 1.1964 2.564 3.0766 2.564 5.1277 0 2.1365-.94 4.0167-2.478 5.1277-1.026.7691-2.308 1.1964-4.359 1.1964zm7.265-9.9135c-.77-.6837-1.881-1.0255-3.59-1.0255h-1.88v9.2298h1.88c1.795 0 2.82-.3418 3.59-1.0255.94-.8546 1.538-2.1366 1.538-3.504 0-1.5383-.513-2.8202-1.538-3.6748zm11.707 6.666h5.298l1.368 3.2475h1.88l-5.213-12.6483h-1.282l-5.214 12.6483h1.881zm4.614-1.7092h-3.931l1.966-4.7004z" fill="#1d1d1d" fill-rule="evenodd"/></svg>