<svg fill="none" height="100" viewBox="0 0 300 100" width="300" xmlns="http://www.w3.org/2000/svg" xmlns:xlink="http://www.w3.org/1999/xlink"><clipPath id="a"><path d="m0 0h300v100h-300z"/></clipPath><g clip-path="url(#a)" fill="#1d1d1d"><path d="m63.6159 17.6119h-6.9949c-.1921 0-.3616.0902-.4633.2481l-24.3295 35.604-24.44256-35.604c-.10171-.1579-.27121-.2481-.46332-.2481h-6.9948785c-.3164085 0-.5650145.2481-.5650145.5637v64.1167c0 .3044.248606.5637.5650145.5637h18.3403585c.3164 0 .565-.248.565-.5637v-8.0724c0-.3156-.2486-.5637-.565-.5637h-9.56003v-37.2839l22.66843 32.7291c.1017.1466.2825.2481.4633.2481s.3616-.0902.4633-.2481l22.5441-32.6953v45.8862c0 .3044.2486.5637.565.5637h8.2153c.3164 0 .565-.248.565-.5637v-64.1167c-.0113-.3156-.2599-.5637-.5763-.5637z"/><path d="m143.724 27.0144c-3.006-2.9764-6.555-5.3552-10.544-7.0576-4.011-1.7137-8.362-2.5818-12.916-2.5818s-8.893.8681-12.916 2.5818c-4 1.7024-7.5487 4.0812-10.5433 7.0576-3.0058 2.9877-5.4015 6.5053-7.1079 10.4513-1.7289 3.9798-2.599 8.2978-2.599 12.8188s.8814 8.8277 2.599 12.8075c1.7064 3.946 4.1021 7.4636 7.1192 10.4625 3.0059 2.9877 6.554 5.3553 10.543 7.0577 4.023 1.7137 8.362 2.5818 12.916 2.5818s8.894-.8681 12.917-2.5818c3.977-1.7024 7.526-4.07 10.543-7.0577 3.006-2.9764 5.401-6.4939 7.119-10.4512 1.729-3.9911 2.599-8.2978 2.599-12.8075s-.87-8.8278-2.599-12.8076c-1.729-3.9572-4.125-7.4861-7.13-10.4738zm-1.481 32.4473c-1.243 2.8411-2.972 5.3778-5.141 7.5312-2.159 2.1421-4.713 3.8671-7.594 5.1073-2.825 1.2176-5.944 1.8377-9.244 1.8377-3.311 0-6.418-.6201-9.243-1.8377-2.859-1.2289-5.413-2.9426-7.594-5.1073-2.17-2.1421-3.8989-4.6788-5.1419-7.5312-1.2318-2.8073-1.8533-5.8851-1.8533-9.1659s.6215-6.37 1.8533-9.1773c1.243-2.8411 2.9719-5.3778 5.1419-7.5312 2.181-2.1534 4.735-3.8783 7.594-5.1072 2.836-1.2176 5.943-1.8377 9.254-1.8377 3.3 0 6.408.6201 9.244 1.8377 2.859 1.2289 5.413 2.9538 7.594 5.1072 2.17 2.1534 3.898 4.6788 5.142 7.5312 1.231 2.8073 1.853 5.8852 1.853 9.1773-.012 3.2695-.633 6.3586-1.865 9.1659z"/><path d="m217.413 26.0789c-6.385-5.6146-15.798-8.467-27.946-8.467h-12.543c-.316 0-.565.2481-.565.5637v64.1167c0 .3044.249.5637.565.5637h12.543c12.159 0 21.573-2.8749 27.957-8.5346 6.498-5.7499 9.786-13.8786 9.786-24.1494.012-10.2709-3.288-18.3771-9.797-24.0931zm-6.78 41.6922c-4.916 4.0023-12.035 6.043-21.177 6.043h-3.774v-47.1715h3.774c9.142 0 16.261 2.0181 21.177 5.9866 4.78 3.8784 7.108 9.6057 7.108 17.5315.022 7.9483-2.306 13.7095-7.108 17.6104z"/><path d="m299.962 82.213-24.668-64.2633c-.079-.2142-.294-.3607-.531-.3607h-8.012c-.237 0-.441.1465-.531.3607l-24.601 64.1167c-.068.1691-.045.3608.056.5186.102.1579.283.2481.464.2481h8.78c.237 0 .441-.1466.531-.3608l19.301-50.2043 15.922 41.5006h-11.244c-.316 0-.565.248-.565.5637v8.0611c0 .3044.249.5637.565.5637l23.991.0338c.181 0 .362-.0902.463-.248.125-.1579.147-.3495.079-.5299z"/></g></svg>