<svg fill="none" height="100" viewBox="0 0 300 100" width="300" xmlns="http://www.w3.org/2000/svg" xmlns:xlink="http://www.w3.org/1999/xlink"><clipPath id="a"><path d="m0 27h300v45.9456h-300z"/></clipPath><g clip-path="url(#a)"><path d="m24.8059 63.7291c.307.0118.6089-.0808.8566-.2627.2717-.25.4692-.5701.571-.9251l2.9922-8.5998c.0883-.1942.1386-.4036.1485-.6167-.0059-.2126-.071-.4193-.1881-.5969-.117-.1775-.2813-.3189-.4743-.4081l-1.1421-.6167c-.2197-.1228-.4678-.1858-.7195-.1828-.2025.0173-.398.0822-.5707.1894-.1726.1072-.3175.2536-.4229.4273-1.4473 2.0691-3.3009 3.8216-5.4477 5.1508-1.9011 1.0467-4.0429 1.5782-6.2129 1.5418-1.8387 0-2.7638-.7766-2.7638-2.2841v-20.8886c-.0217-.4348.0814-.8667.297-1.2448.2494-.324.5986-.5567.9936-.6624l1.142-.3769c.2846-.1158.5386-.2955.7424-.5254.1586-.2561.2306-.5564.2056-.8565v-1.3705c.0113-.3146-.0991-.6214-.3084-.8566-.1147-.1144-.2524-.2031-.4041-.2602-.1516-.0571-.3136-.0813-.4753-.071h-12.38009c-.1651-.01-.330479.0143-.485749.0713-.155271.057-.297071.1455-.416488.2599-.111479.1121-.198478.2461-.2554889.3935-.0570108.1475-.08279213.3052-.075712.4631v1.3705c-.01928799.3012.0566233.6008.2169939.8565.208728.2372.476754.4145.776614.5139l1.0507.3884c.41539.0948.78601.3285 1.05071.6624.2095.376.30847.8036.28552 1.2334v20.8086c.02295.4298-.07602.8574-.28552 1.2334-.2647.3339-.63532.5676-1.05071.6624l-1.0507.3769c-.300379.1107-.570382.2907-.788035.5254-.1585872.2561-.2306564.5564-.2055729.8565v1.3819c-.0054917.1561.0210655.3116.0780311.4569.0569658.1454.1431298.2775.2531698.3883.118856.1159.260287.2061.415501.2651.155214.0589.320896.0853.486736.0775h20.13479c.2601-.0133.5203.0255.7652.1142.2502.1063.4877.2404.7081.3997.433.3406.968.5256 1.5189.5254zm18.6044-1.0507c.3029 0 .5934-.1203.8076-.3345.2141-.2142.3345-.5047.3345-.8076v-1.4276c.0137-.3048-.0791-.6048-.2625-.8487-.1833-.2438-.4459-.4162-.7426-.4875l-.708-.2284c-.3766-.1124-.7108-.3352-.9594-.6396-.2032-.3452-.3024-.7418-.2855-1.1421v-16.8341c0-1.0507-.4568-1.5647-1.3819-1.5647-.2899.0122-.5774.0582-.8566.1371l-7.0694 2.1357c-.3273.0291-.6302.1853-.8437.4351s-.3206.5732-.2984.9011v1.1421c-.0212.278.06.5543.2284.7766.2287.2165.5072.3734.8109.4568.5959.1262 1.1384.4333 1.5532.8794.2953.4746.4351 1.0296.3997 1.5875v9.9246c.0231.4009-.0765.7992-.2855 1.1421-.2523.3184-.6009.5468-.9936.651l-.7195.2398c-.2947.0692-.5557.2398-.7373.482s-.2723.5405-.2563.8428v1.3362c-.0055.1561.0211.3116.078.4569.057.1454.1432.2775.2532.3883.1189.1159.2603.2061.4155.2651.1552.0589.3209.0853.4868.0775zm-5.8931-26.6903c1.2716.0541 2.5202-.3513 3.5176-1.1421.4335-.3509.7797-.7975 1.0116-1.3048.2318-.5073.3429-1.0614.3246-1.6189.0183-.5525-.093-1.1016-.325-1.6033-.2321-.5018-.5784-.9422-1.0112-1.2861-.9993-.7872-2.2465-1.1921-3.5176-1.1421-1.2744-.0487-2.5248.3559-3.529 1.1421-.4315.3444-.7761.7853-1.0062 1.2871s-.3392 1.0507-.3186 1.6023c-.0206.5567.0883 1.1105.3182 1.6178.2299.5074.5745.9544 1.0066 1.3059 1.0008.7925 2.2536 1.198 3.529 1.1421zm22.5103 26.6903c.3029 0 .5934-.1203.8075-.3345.2142-.2142.3345-.5047.3345-.8076v-1.4162c.0337-.3087-.0515-.6187-.2382-.8669s-.4608-.416-.7668-.4693l-1.1421-.2855c-.3858-.0712-.7316-.2827-.9707-.5939-.1901-.3496-.2809-.7445-.2627-1.1421v-12.7569c-.0009-.0749.0139-.1492.0434-.218s.0731-.1308.1279-.1817c.0516-.0534.1138-.0953.1827-.1228.0689-.0276.1429-.0402.217-.0371h4.5683c.1626.0088.3251-.0172.4768-.0763.1516-.0591.2889-.1499.4026-.2664.1087-.1224.192-.2652.2449-.4201.053-.1549.0745-.3188.0635-.4821v-2.09c.0293-.2688-.0474-.5385-.2137-.7518-.1663-.2132-.4092-.3532-.6771-.3903-.0977-.0228-.1993-.0228-.297 0h-.6167c-1.6907.1416-3.3826-.2584-4.831-1.142-.5097-.4059-.9125-.9303-1.1733-1.5275-.2607-.5971-.3715-1.249-.3228-1.8988-.0346-.7814.1991-1.5511.6624-2.1813.2102-.2769.4838-.4992.7978-.6483.3141-.149.6593-.2205 1.0067-.2083.7837.0351 1.5358.3192 2.1471.8109.8618.6851 1.6572 1.4499 2.3755 2.2841.1974.2376.4283.4454.6853.6168.2226.1371.4811.2047.7423.1941.2594.0082.5138-.0721.7214-.2278s.3559-.3775.4207-.6287l1.6103-4.4199c.0896-.2258.1398-.4653.1485-.7081-.009-.2118-.0768-.4169-.1958-.5924-.1191-.1755-.2846-.3144-.478-.4012-.8583-.4093-1.7692-.6976-2.7068-.8565-1.2082-.2301-2.4361-.3411-3.666-.3312-2.3573-.1197-4.6887.5384-6.6355 1.873-1.8962 1.5668-3.1551 3.772-3.5404 6.2014l-.5254 2.4669c-.0727.3274-.2001.6401-.3768.9251-.1655.2454-.4.4361-.6739.5482l-.6167.3312c-.3349.1376-.6295.3576-.8565.6396-.1702.2985-.2533.6388-.2399.9821v1.1421c-.0064.1657.0206.331.0794.486.0589.1551.1484.2966.2632.4163.1121.1114.2461.1984.3936.2555.1474.057.3051.0827.463.0757h1.7588c.149-.0009.2924.0564.3997.1599.0552.0531.0989.117.1283.1878.0295.0707.0441.1467.043.2233v12.7684c.0182.4004-.081.7973-.2855 1.1421-.2592.3138-.6109.5376-1.005.6395l-.7081.2399c-.2957.0689-.558.2391-.7416.481-.1835.2419-.2767.5404-.2634.8438v1.3362c-.0071.1579.0187.3156.0757.463.057.1475.144.2815.2555.3935.1209.1123.263.1994.4179.2562.1548.0569.3195.0824.4843.075zm28.5518-7.6976c-.2361-.1679-.5214-.2523-.8109-.2398-.5569.037-1.081.2767-1.4732.6738-.6689.5902-1.4441 1.0476-2.2842 1.3476-.9124.3427-1.8805.5131-2.8552.5026-1.4228.0253-2.829-.3086-4.0886-.9708-1.1713-.6111-2.1455-1.5417-2.8095-2.6839-.0894-.1429-.1258-.3127-.1028-.4796.0213-.0795.0631-.1519.1212-.21.0582-.0582.1306-.1.21-.1212l12.9511-4.7054c.6624-.2513 1.0051-.651 1.0051-1.1421-.0111-.1938-.0456-.3855-.1028-.571-.5172-2.366-1.8366-4.4803-3.7346-5.9845-1.9869-1.4419-4.3991-2.1776-6.8524-2.09-2.177-.0349-4.3232.5175-6.2129 1.5989-1.8034 1.0411-3.2731 2.5741-4.2371 4.4199-1.0214 1.9871-1.5354 4.196-1.4961 6.4298-.0423 2.2431.5093 4.4574 1.5989 6.4185 1.0525 1.8549 2.6033 3.3781 4.4769 4.397 2.0233 1.1174 4.3014 1.6918 6.6126 1.6674 2.3969.1144 4.7761-.4645 6.8525-1.6674 1.6406-.9874 2.9093-2.4889 3.6089-4.2714.1666-.3598.2671-.7467.2969-1.142-.0036-.2272-.0628-.45-.1722-.6491-.1095-.199-.266-.3683-.4559-.493zm-11.2723-12.4143c.7999-.0207 1.5839.2249 2.2289.6983s1.1144 1.1478 1.3344 1.917c.0419.0601.0711.128.0858.1998.0147.0717.0145.1457-.0004.2174-.015.0716-.0445.1395-.0867.1993-.0421.0599-.0961.1105-.1586.1487-.0645.0465-.1387.0777-.217.0914l-7.1379 2.8552c-.0748.0363-.1568.0552-.2399.0552s-.1651-.0189-.2398-.0552c-.0644-.0383-.1168-.094-.1512-.1606-.0343-.0667-.0492-.1416-.0429-.2163v-.2855c-.0826-1.5028.3752-2.9854 1.2905-4.18.4011-.4932.9109-.8869 1.4894-1.1504s1.2101-.3896 1.8454-.3686zm38.728 20.5801c3.259.1467 6.474-.7977 9.136-2.6838 2.022-1.7848 3.253-4.2982 3.424-6.9892.171-2.6909-.731-5.3401-2.51-7.3667-2.05-1.7943-4.496-3.078-7.138-3.746l-5.71-1.7588c-1.299-.3533-2.524-.9333-3.621-1.7131-.363-.2783-.656-.6384-.855-1.0512-.198-.4127-.297-.8665-.287-1.3243-.022-.463.071-.9242.27-1.3427s.499-.7811.872-1.0557c.986-.6404 2.15-.9485 3.324-.8794 1.672.0179 3.307.5046 4.717 1.4048 1.987 1.3397 3.782 2.9459 5.333 4.7738.132.178.305.3224.503.4216s.417.1504.639.1495c.301-.0109.594-.0931.857-.2399l.753-.4225c.218-.1052.404-.2664.538-.4672.135-.2007.213-.4337.228-.6749-.023-.2456-.089-.4853-.195-.7081l-3.563-7.1836c-.172-.3568-.4-.6844-.674-.9708-.265-.2191-.604-.3293-.948-.3084h-.525c-.25.0016-.499.0322-.742.0914l-.4.1485c-.44.1757-.908.2723-1.382.2855-.717-.0228-1.431-.103-2.136-.2398-1.133-.1844-2.278-.2951-3.426-.3312-3.074-.1685-6.111.7402-8.588 2.5696-1.036.8253-1.862 1.8832-2.411 3.0877-.55 1.2046-.808 2.5218-.753 3.8447 0 4.4617 2.84 7.6443 8.52 9.5478l6.042 1.9986c1.425.4138 2.759 1.0961 3.928 2.01.411.3658.736.8172.953 1.3223.217.5052.321 1.0519.304 1.6014.027.5577-.083 1.1135-.32 1.6191s-.594.9456-1.039 1.2818c-1.138.7276-2.478 1.0755-3.826.9936-4.279 0-8.231-2.5163-11.855-7.5491-.129-.2177-.308-.401-.523-.5343-.214-.1332-.458-.2125-.71-.2309-.282.0006-.56.067-.811.1942l-1.142.571c-.226.0892-.4176.248-.547.4534-.1293.2053-.1899.4466-.1729.6887-.005.297.0616.5907.1941.8565l4.0888 8.6455c.111.3305.323.6181.605.8228.283.2047.622.3163.971.3193h.617c.495-.0334.98-.1614 1.427-.3769.451-.2087.934-.34 1.428-.3883.766.0494 1.529.1448 2.284.2855 1.619.39 3.28.5818 4.945.5711zm25.217.0229c2.317.1143 4.603-.5711 6.475-1.9415l.857-.6624c.064-.0577.142-.0976.226-.1156.084-.0181.172-.0137.254.0128.078.0554.144.1268.193.2094.05.0827.081.1747.092.2702l.091.4226c.085.3731.276.714.549.9822.296.219.659.328 1.028.3083h7.24c.151.0125.303-.0052.447-.052.144-.0469.278-.1219.392-.2207.115-.0989.209-.2196.277-.3551s.108-.2831.118-.4343v-1.4504c.019-.3128-.078-.6216-.272-.8679-.193-.2463-.471-.413-.779-.4683l-.662-.2399c-.395-.0996-.748-.3239-1.005-.6395-.205-.3448-.304-.7417-.286-1.1421v-16.9027c0-1.0164-.445-1.519-1.325-1.519-.291-.0008-.58.0455-.856.1371l-7.241 2.1357c-.297.0713-.559.2437-.743.4875-.183.2438-.276.5439-.262.8487v1.1421c-.018.2795.067.5559.24.7766.227.2189.506.3761.811.4568.587.0955 1.123.3898 1.519.8337.287.4772.419 1.0321.376 1.5875v8.4742c.012.2938-.043.5865-.159.8565-.153.26-.375.4733-.64.6168-.658.3629-1.356.6503-2.079.8565-.683.2183-1.395.33-2.112.3312-.295.0272-.592-.0166-.866-.1279-.275-.1113-.518-.2868-.71-.5116-.359-.5937-.523-1.2845-.469-1.9758v-15.4066c0-1.0164-.445-1.519-1.336-1.519-.291-.0008-.58.0455-.856.1371l-7.23 2.1357c-.305.062-.578.2304-.77.4752-.193.2447-.292.5499-.281.861v1.1421c-.024.2803.062.5591.24.7766.225.2164.499.3734.8.4568.595.0993 1.141.3924 1.553.8337.3.473.444 1.0283.411 1.5875v9.0681c0 4.8804 2.25 7.3207 6.75 7.3207zm33.314 9.719c.167.0154.336-.0063.494-.0635.158-.0573.301-.1487.42-.2677.11-.1107.196-.2429.253-.3882.057-.1454.083-.3009.078-.4569v-1.3362c.036-.3079-.048-.6179-.236-.8649-.187-.247-.463-.4119-.769-.4599l-1.142-.2856c-.392-.0803-.746-.2893-1.005-.5938-.205-.3444-.3-.7425-.274-1.1421v-4.2485c0-.3198.137-.4797.422-.4797.109-.0231.222-.0231.331 0 1.359.5617 2.814.8527 4.283.8566 1.953.0192 3.873-.4984 5.551-1.4962 1.703-1.0495 3.067-2.5683 3.928-4.3741.913-2.0989 1.397-4.3585 1.427-6.6468.029-2.2883-.397-4.5595-1.255-6.6812-.745-1.6847-1.958-3.1198-3.495-4.1343-1.511-.9478-3.264-1.4395-5.048-1.4162-1.03-.0232-2.054.1714-3.004.5711-.959.4254-1.842 1.004-2.615 1.7131-.055.057-.12.1026-.193.1339-.072.0314-.15.048-.23.0488-.262 0-.388-.137-.388-.4226v-.571c0-1.0507-.445-1.5646-1.336-1.5646-.291.0008-.58.0471-.857.137l-6.943 2.0443c-.301.0604-.568.2284-.753.4723-.186.244-.275.5471-.252.8525v1.1421c-.021.2834.064.5643.239.788.227.2189.506.3762.811.4569.59.117 1.124.4263 1.519.8794.288.4772.419 1.032.377 1.5874v20.2833c.028.4012-.072.801-.285 1.142-.243.3063-.574.5297-.948.6396l-.708.2398c-.292.0766-.549.2488-.732.489-.182.2401-.278.5344-.273.8358v1.3248c0 .3029.12.5934.334.8076s.505.3345.808.3345c.029.0115.062.0115.091 0zm.48-13.9104c-.696.0084-1.383-.1564-1.999-.4797-.252-.1793-.452-.4238-.576-.7073-.125-.2836-.171-.5957-.132-.903v-11.455c-.041-.3648.011-.7339.151-1.0733s.363-.638.648-.8683c.611-.3386 1.302-.5044 1.999-.4796.775-.0028 1.539.1918 2.218.5654.679.3737 1.252.914 1.665 1.5703 1.085 1.734 1.611 3.7591 1.508 5.8017.16 2.1375-.377 4.2693-1.531 6.0758-.447.629-1.04 1.1396-1.728 1.4879-.689.3482-1.452.5235-2.223.5108zm29.031 13.9675c.337.0141.665-.1049.914-.3312.111-.112.198-.246.255-.3935.057-.1474.083-.3051.076-.463v-1.3362c.036-.308-.048-.6179-.235-.865-.188-.247-.464-.4118-.77-.4599l-1.142-.2855c-.39-.0775-.741-.2873-.994-.5938-.211-.3422-.315-.7402-.297-1.1421v-4.2942c0-.3198.149-.4797.434-.4797.11-.0231.222-.0231.332 0 1.358.5629 2.813.8539 4.282.8566 1.953.0192 3.873-.4984 5.551-1.4962 1.708-1.0403 3.071-2.562 3.917-4.3741.918-2.0974 1.406-4.3575 1.435-6.6467.03-2.2891-.4-4.561-1.263-6.6813-.745-1.6847-1.958-3.1198-3.495-4.1343-1.512-.9478-3.264-1.4395-5.048-1.4162-1.027-.0229-2.046.1717-2.992.5711-.963.4252-1.85 1.0038-2.627 1.7131-.054.0575-.12.1034-.193.1349-.072.0314-.151.0476-.23.0478-.262 0-.388-.137-.388-.4226v-.571c0-1.0507-.434-1.5646-1.325-1.5646-.291-.0009-.58.0454-.856.137l-6.956 2.0443c-.299.0606-.565.229-.749.4732-.183.2443-.27.5474-.244.8516v1.1421c-.021.2834.064.5643.24.788.224.2165.499.3735.799.4569.594.1138 1.133.4235 1.53.8794.282.4794.414 1.0325.377 1.5874v20.2833c.023.4008-.077.7989-.285 1.142-.242.3063-.574.5297-.948.6396l-.72.2398c-.289.0788-.544.2519-.724.4918-.18.24-.275.5331-.269.833v1.3248c0 .3029.12.5934.334.8076s.505.3345.808.3345h11.558zm.48-13.9218c-.696.0084-1.383-.1564-1.999-.4797-.252-.1805-.451-.4248-.578-.7077-.126-.283-.175-.5945-.141-.9026v-11.5007c-.031-.3649.027-.7318.168-1.0697s.362-.6369.643-.8719c.61-.3386 1.301-.5044 1.998-.4796.776-.0028 1.539.1918 2.218.5654.679.3737 1.253.914 1.665 1.5703 1.086 1.733 1.609 3.7597 1.496 5.8017.159 2.1358-.373 4.2659-1.518 6.0758-.448.6283-1.042 1.1384-1.73 1.4866-.688.3481-1.451.5238-2.222.5121zm28.266 3.6546c.158.0071.316-.0187.463-.0757.148-.057.282-.144.394-.2555.114-.1194.203-.2612.26-.4165s.081-.3206.071-.4857v-1.2792c.006-.3014-.088-.5962-.268-.8381s-.435-.4171-.726-.4981l-.719-.2398c-.392-.0976-.737-.3326-.971-.6624-.195-.3477-.286-.7441-.263-1.1421v-28.2549c0-1.0165-.445-1.519-1.336-1.519-.306 0-.61.0462-.902.1371l-7.184 2.09c-.31.0696-.585.2464-.777.4992s-.289.5655-.273.8827v1.1421c-.018.2795.067.5559.239.7766.227.2188.507.3761.811.4568.609.1145 1.161.4326 1.565.9022.282.4924.416 1.0552.388 1.6218v21.2654c.02.402-.084.8005-.297 1.1421-.253.3154-.601.5399-.993.6395l-.708.2399c-.298.0693-.562.2411-.746.4854-.183.2443-.275.5455-.259.8508v1.2791c-.013.151.005.3029.052.447.047.144.122.2774.22.3921.099.1148.22.2088.355.2765.136.0677.284.1078.435.1178h11.169zm16.138 0c.303 0 .593-.1203.807-.3345.215-.2142.335-.5047.335-.8076v-1.4162c.016-.3037-.074-.6036-.255-.8477-.182-.2441-.443-.4169-.739-.4885l-.719-.2398c-.375-.1099-.706-.3334-.948-.6396-.213-.341-.313-.7408-.286-1.1421v-16.8341c0-1.0507-.468-1.5647-1.382-1.5647-.29.0103-.577.0563-.856.1371l-7.184 2.1357c-.308.0553-.586.222-.779.4683-.194.2463-.29.5551-.272.8679v1.1421c-.018.2795.068.5559.24.7766.227.2189.506.3761.811.4568.593.1263 1.132.4336 1.542.8794.299.4778.442 1.0363.411 1.5989v9.9132c.02.4021-.084.8005-.297 1.1421-.253.3154-.602.5399-.993.6395l-.72.2399c-.296.0716-.557.2444-.738.4885-.182.2441-.272.544-.256.8477v1.3248c-.007.1579.019.3156.076.463.057.1475.144.2815.256.3936.119.1144.261.2029.416.2599s.321.0813.486.0713zm-5.905-26.6903c1.275.0538 2.527-.3514 3.529-1.1421.43-.3532.773-.8006 1.003-1.3075s.34-1.0599.322-1.6162c.021-.5516-.088-1.1005-.319-1.6023-.23-.5018-.574-.9427-1.006-1.2871-1.036-.7136-2.265-1.0956-3.523-1.0956s-2.487.382-3.523 1.0956c-.433.3439-.779.7843-1.012 1.2861-.232.5017-.343 1.0508-.325 1.6033-.018.5575.093 1.1116.325 1.6189s.578.9539 1.012 1.3048c.997.7908 2.246 1.1962 3.517 1.1421zm32.458 18.9927c-.231-.1696-.513-.2543-.799-.2398-.56.0404-1.086.2794-1.485.6738-.666.5937-1.442 1.0515-2.284 1.3476-.912.3437-1.881.5141-2.855.5026-1.423.0238-2.829-.31-4.089-.9708-1.169-.6142-2.143-1.544-2.81-2.6839-.091-.142-.124-.314-.091-.4796.018-.0811.058-.1555.117-.2142s.133-.0993.214-.117l12.94-4.7054c.674-.2513 1.005-.651 1.005-1.1421-.013-.1927-.043-.3839-.091-.571-.544-2.3268-1.86-4.4005-3.735-5.8817-1.982-1.4508-4.398-2.1875-6.852-2.09-2.177-.0417-4.324.5069-6.213 1.5875-1.807 1.0375-3.277 2.5715-4.237 4.4198-1.025 1.9863-1.543 4.1951-1.508 6.4299-.036 2.2424.515 4.4552 1.599 6.4185 1.052 1.8549 2.603 3.378 4.477 4.3969 1.984 1.0592 4.203 1.6013 6.453 1.5761 2.397.1157 4.776-.4633 6.852-1.6674 1.644-.984 2.913-2.4867 3.609-4.2714.163-.3604.26-.7473.286-1.142.001-.2269-.054-.4506-.162-.6502-.108-.1997-.265-.3689-.455-.4919zm-11.444-12.4143c.783-.0144 1.55.2173 2.193.6624.62.4896 1.071 1.1603 1.291 1.9187.04.0605.068.1285.082.1999.014.0715.013.1449-.002.2162-.015.0712-.044.1387-.085.1987-.041.0599-.094.111-.155.1503-.066.0447-.139.0757-.217.0914l-7.15 2.8552c-.071.039-.152.0594-.234.0594-.081 0-.162-.0204-.234-.0594-.066-.0361-.12-.0913-.155-.1586-.034-.0672-.048-.1432-.039-.2183v-.2855c-.069-1.4943.406-2.9629 1.336-4.1343.4-.4916.908-.8844 1.485-1.1478.576-.2634 1.205-.3904 1.839-.3712zm26.451 20.6715c2.474.1403 4.923-.5644 6.944-1.9986.843-.6839 1.511-1.5583 1.95-2.5511s.635-2.0756.574-3.1593c.052-.9036-.079-1.8085-.385-2.6603-.306-.8517-.781-1.6328-1.397-2.2963-1.517-1.3606-3.364-2.3015-5.356-2.7296l-3.529-.9479c-1.073-.2383-2.099-.6511-3.038-1.222-.274-.1685-.502-.4033-.661-.6827-.16-.2794-.247-.5944-.253-.9162-.01-.2818.048-.5619.169-.8165s.302-.476.528-.6453c.608-.3854 1.326-.5618 2.044-.5026 1.212.0298 2.394.3806 3.426 1.0165 1.469.8972 2.82 1.9754 4.02 3.2092.251.2646.595.4204.96.434.283-.0037.56-.0868.799-.2398l.48-.2856c.171-.0675.317-.1857.42-.3388.102-.1531.154-.3337.151-.5177-.024-.2307-.09-.4551-.194-.6624l-2.513-5.2764c-.101-.2491-.272-.4631-.493-.6153-.222-.1523-.483-.2362-.752-.2413-.321.0228-.639.0802-.948.1714-.422.1044-.855.1581-1.29.1599-.715-.0156-1.429-.0766-2.136-.1828-.816-.1595-1.646-.2398-2.478-.2398-2.28-.1262-4.533.544-6.373 1.8958-.756.6185-1.356 1.4056-1.753 2.2981-.397.8926-.579 1.8657-.531 2.8413-.05.86.08 1.721.383 2.5275s.772 1.5406 1.376 2.155c1.464 1.2787 3.209 2.1943 5.093 2.6724l3.609 1.1421c1.037.2382 2.015.6809 2.878 1.302.274.2104.496.48.65.7885.155.3086.237.6481.241.9931.017.3191-.044.6375-.177.9279s-.335.5442-.588.7395c-.653.415-1.42.6147-2.193.5711-1.55-.0299-3.063-.4841-4.374-1.3134-1.635-1.0176-3.083-2.3077-4.283-3.8146-.124-.1898-.294-.3463-.493-.4558s-.422-.1686-.649-.1723c-.233.0105-.46.0771-.662.1942l-.857.4796c-.225.0892-.417.248-.546.4534-.13.2053-.19.4466-.173.6887 0 .2383.068.4717.194.6738l3.038 6.0073c.107.283.296.5281.541.7048.246.1767.538.2771.841.2888.224.0049.448-.0259.662-.0913.148-.0336.294-.0794.434-.1371.442-.2258.931-.3432 1.428-.3426.547.023 1.091.1034 1.621.2398 1.179.3074 2.391.4685 3.609.4797" fill="#1d1d1d"/></g></svg>