<svg fill="none" height="100" viewBox="0 0 300 100" width="300" xmlns="http://www.w3.org/2000/svg"><g fill="#1d1d1d"><path d="m224.211 15.8857c-1.451-1.6176-3.899-3.1522-6.843-3.1522-9.457 0-12.568 8.4612-12.568 16.4246 0 7.4243 3.235 14.7656 12.153 14.7656 2.447 0 5.309-1.4102 6.221-2.9448v2.5715c0 4.6039-.373 6.8022-6.346 6.8022-2.861 0-6.221-1.0369-9.166-2.5716l-1.949 5.5164c3.857 1.9079 7.507 3.0692 11.53 3.0692 3.111 0 7.507-.4977 10.328-2.9448 2.986-2.4471 3.111-6.8021 3.111-11.0327l.041-29.7386-5.931.954c0-.083-.456 1.6175-.581 2.2812zm-1.037 15.5536c0 1.4102-.124 2.8204-.663 3.9818-.664 1.4102-1.95 2.3226-3.609 2.3226-4.77 0-5.309-3.3181-5.309-9.6225 0-5.6408 1.037-8.9589 5.185-8.9589 2.074 0 3.608 1.0369 4.396 1.9079z"/><path d="m194.93 88.511.041-10.2446c0-3.1523-.124-4.1062-.539-5.392-1.161-3.3181-4.645-5.2675-9.83-5.2675-2.862 0-5.433.4977-8.42 1.7835-1.659.7051-3.276 1.6176-4.811 2.5301l2.945 5.226c3.65-2.2812 6.512-3.1937 9.083-3.1937 2.986 0 3.692 1.3273 3.692 4.6454v1.1613h-1.867c-9.705 0-14.6 3.3181-14.6 10.3691 0 5.4749 2.987 8.876 8.71 9.4152h3.236c1.825-.2074 3.359-.7881 4.604-1.5762.663-.3732 1.285-1.0369 1.949-1.7005.664 1.2858 1.908 2.4886 3.318 3.2767l.954.4562.415-.4562 4.106-4.3965c-2.696-2.0324-2.986-3.5255-2.986-6.6363zm-12.236 5.392c-2.074 0-3.484-1.6591-3.484-3.9818 0-3.6084 1.825-4.9357 7.383-4.9357h.456v7.051c-1.203 1.2858-2.82 1.8665-4.355 1.8665z"/><path d="m48.2272 2.44712h-32.2272v31.97828l16.2173 16.1343 32.2686-31.9783z"/><path d="m16 66.6942v32.0198h32.2272l16.2587-16.1343-32.2686-32.0198z"/><path d="m80.7029 98.714h32.0611v-32.2687l-16.0098-15.8854-32.2686 32.0198z"/><path d="m64.4856 18.5814 32.2686 31.9783 16.0098-15.8854v-32.22718h-32.0611z"/><path d="m283.357 38.1168c-1.41.3733-2.074.6636-2.82.6636-2.738 0-3.484-1.0369-3.484-4.8942v-15.1389h5.018l2.074-5.5164h-7.092v-8.33672l-7.881 1.28577v7.05095h-3.111v5.5164h3.111v16.4247c0 2.8204 0 3.3181.498 4.6453.912 2.696 4.147 4.4795 8.129 4.4795 2.074 0 4.272-.4977 6.595-1.4102z"/><path d="m136.697 22.0655 12.484 21.4433h10.535l-14.309-22.0655 12.899-18.99618h-9.83l-11.779 18.74738v-18.74738h-8.378v41.06168h8.378z"/><path d="m175.394 19.3694c2.198 0 2.82 1.4102 2.82 4.8527v19.2451h7.756v-22.024c0-1.9494-.124-3.1937-.497-4.355-.913-2.5715-4.024-4.355-7.383-4.355-1.825 0-3.858.3733-5.434 1.2857-1.285.6637-2.571 1.6591-3.484 2.8204l-.497-4.0232-6.72 1.0784v29.6142h8.005v-17.8349c0-2.1982.664-3.7329 1.701-4.7283 1.161-1.0369 2.447-1.5761 3.733-1.5761z"/><path d="m192.026 43.5091h8.046v-30.8999l-8.046 1.2443z"/><path d="m253.245 12.4844c-3.484 0-6.471 1.2858-8.669 3.6915 0-.3733.125-2.1983.125-3.0693v-11.40602l-8.13 1.32725v40.52247h8.13v-16.715c0-2.8204.373-4.438 1.285-5.5164 1.203-1.4102 3.236-2.1982 5.061-2.1982 2.322 0 3.11 1.2857 3.11 4.1061v20.282h7.756v-21.153c0-2.9448-.124-3.8573-.788-5.5163-.912-2.696-3.981-4.3551-7.88-4.3551z"/><path d="m196.091 0c-2.737 0-4.936 2.19825-4.936 4.93569 0 2.73745 2.199 4.93569 4.936 4.93569s4.936-2.19824 4.936-4.93569c0-2.69596-2.199-4.93569-4.936-4.93569z"/><path d="m128.235 98.5063h8.129v-18.2081h10.618v-6.6362h-10.618v-9.6226h13.19l1.037-6.5532h-22.356z"/><path d="m159.01 72.2104-.788-4.1062-6.47 1.0369v29.3653h8.005v-18.7473c0-1.5347.249-2.8204 1.161-3.8159.788-.8295 2.074-1.4102 3.526-1.4102.912 0 1.949.2489 2.737.6222l2.033-7.051c-1.286-.4977-1.825-.6221-2.987-.6221-2.986 0-5.931 2.6959-7.217 4.7283z"/><path d="m231.677 58.2742v40.2322h8.005v-17.1713-24.3466z"/><path d="m257.268 68.2286h-9.705l-7.881 13.1065 10.411 17.1713h9.373l-12.028-17.5446z"/><path d="m217.741 67.7309c-1.825 0-3.899.3733-5.433 1.2858-1.286.6636-2.572 1.659-3.484 2.8204l-.498-4.0233-6.719 1.0784v29.6142h8.005v-17.8349c0-2.1982.663-3.7328 1.7-4.7698 1.162-1.0369 2.447-1.5346 3.733-1.5346 2.198 0 2.862 1.4102 2.862 4.8942v19.2451h7.756v-22.0655c0-1.9079-.124-3.1936-.498-4.355-.954-2.53-4.064-4.355-7.424-4.355z"/></g></svg>