<svg fill="none" height="100" viewBox="0 0 300 100" width="300" xmlns="http://www.w3.org/2000/svg" xmlns:xlink="http://www.w3.org/1999/xlink"><clipPath id="a"><path d="m0 21h300v58.2879h-300z"/></clipPath><g clip-path="url(#a)"><path clip-rule="evenodd" d="m43.9091 21.0465c-12.8848-.1215-28.9415 2.0143-40.5181 11.5187-3.947618 3.2472-3.658146 9.9384-2.980915 12.1033 6.488685 20.6989 18.777215 29.6536 26.047315 33.6822 3.473 1.8986 7.8836.4862 10.2973-1.4992 7.6232-6.2687 20.0276-17.7643 25.9895-41.7741 1.6092-6.5003-1.9448-12.7633-7.3395-13.3421-3.2993-.3473-7.2354-.6483-11.4956-.6888zm-14.8701 7.4147c9.4639-.5441 17.5848 2.6512 24.085 5.4643 3.5367 1.5339 4.2487 6.4249 1.8176 10.5925-8.8708 15.194-22.4878 20.9802-29.0584 23.7723l-.2594.1102c-2.0433.8683-5.4526.5788-7.3975-1.4471-4.127-4.3296-6.9111-17.2953-4.6884-29.4044.2952-1.615 2.1416-5.9794 5.5915-7.1486 3.1911-1.0886 6.5148-1.7409 9.8806-1.9392zm117.242 10.1701 6.738 8.6824c.017.0141.037.0258.058.0348h4.798c.857 0 1.644-.0058 2.443-.0463l-.064-.11-6.043-8.4798c-.955-1.3371.029-1.5166.961-1.5687 1.247-.0265 3.309-.0184 5.557-.0096h.001.001.001c1.195.0047 2.444.0096 3.649.0096 5.111 0 6.634.4689 7.293 1.5397 1.818 2.9579-.023 6.2282-2.095 8.0341-1.25 1.0767-3.728 1.4761-5.047 1.6556-1.32.1794-7.606.5788-14.934.5788h-2.848c-.602 0-1.349.2547-1.314 1.7365v18.3894l.035.1563h7.802v-13.6083c-.017-.1245-.006-.2514.033-.3709s.105-.2284.193-.3184.195-.1588.313-.2008c.119-.0421.245-.0564.37-.0419h.81c1.801 0 9.922-.0463 12.492-.5788s8.804-3.4845 10.378-7.5884c.944-2.4716 2.072-6.3613.162-10.5752-.99-2.1822-5.001-4.758-12.045-4.758h-8.984-11.576c-1.048 0-2.084 1.3834-2.084 2.3153-.01 1.5522 1.509 3.3807 2.468 4.5353.185.2233.35.4213.478.5873zm-63.0114-1.0593h-13.0758v-6.3671h36.9292v.0521 6.2862h-.019c-3.099 0-9.5553 0-12.6455.0462-.8799 0-1.7365.44-1.7365 1.8466 0 9.952.0211 19.9.0636 29.8444h-7.8605v-30.0992c-.003-.2144-.0483-.4261-.1331-.623-.0848-.1968-.2076-.3751-.3613-.5245-.1538-.1495-.3354-.267-.5346-.3462-.1992-.0793-.4121-.1186-.6265-.1155zm54.9884 11.1541v6.3383h-17.295c-1.077 0-2.489.0694-2.518 1.5512 0 1.1619-.012 2.0297-.025 2.9799v.0012.0025c-.007.5208-.015 1.0666-.021 1.6992-.015.2292.021.4588.104.6729.083.2142.211.4078.376.5674.166.1596.363.2814.58.3571s.448.1034.676.0811h20.375v6.3324h-25.839c-2.072 0-3.722-1.2155-3.866-3.855v-32.2119c0-1.6439 1.285-2.0086 2.5-2.0086h25.625v6.3672h-18.471l-.074-.0001c-.813-.0014-1.772-.0029-1.784 1.4067 0 2.0687-.024 4.7462-.046 7.0194v.0033.0031.003c-.009 1.018-.018 1.9546-.023 2.7186zm121.717-17.4923h-7.803c-.011 12.6803-.015 25.3548-.011 38.0235v.052h7.855c-.027-12.688-.041-25.3798-.041-38.0755zm32.733 38.0813h7.333c0-12.6918-.013-25.3837-.04-38.0755h-5.134c-.996 0-2.188.1042-2.136 2.3501 0 6.946.013 13.8919.04 20.8379-.075 1.4123-.77 1.1577-1.47.0463-2.315-2.8941-14.332-18.4473-16.745-21.6193-.944-1.285-1.905-1.6034-2.692-1.6034l-5.678-.0405v38.0754h5.331c1.949 0 1.968-.8004 1.996-1.9415v-.0029c.001-.0526.003-.1059.004-.1598l.002-.078c0-3.4742-.01-8.5844-.019-12.8136v-.0227-.1724l-.001-.0227v-.1698-.0132-.0197-.0296c-.008-3.8031-.014-6.7958-.008-7.0589 0-.3821.254-1.9392 1.643-.3822.86 1.1694 9.748 12.7343 16.336 21.3053zm-110.783 3.2126h-7.524c-.163.0071-.326-.0232-.475-.0884-.15-.0652-.282-.1636-.388-.2878-.397-.4911-1.151-1.4255-2.109-2.6118l-.004-.0044c-3.164-3.9183-8.542-10.5783-10.581-13.0876 2.432 0 5.355-.0926 7.253-.2546 0 0 0 .0404.052.0751 1.482 1.5803 11.368 12.4391 14.129 15.478.07.0643.118.149.137.2421.019.093.009.1897-.031.2762-.039.0866-.104.1587-.187.2059-.082.0473-.177.0673-.272.0573zm63.996-17.4633v-6.3383l-19.732.0289.011-1.1662v-.0061c.024-2.5061.058-6.009.058-8.5751.011-1.4097.976-1.4081 1.79-1.4067l.074.0001h18.47v-6.3672h-25.624c-1.222 0-2.507.3647-2.507 2.0086v32.2119c.139 2.6395 1.789 3.855 3.867 3.855h25.833v-6.3324h-20.369c-.229.0223-.459-.0054-.676-.0811s-.415-.1975-.58-.3571-.294-.3532-.377-.5674c-.082-.2141-.118-.4437-.104-.6729.007-.6831.016-1.2649.025-1.8234.014-.9039.028-1.7468.028-2.8594.023-1.4818 1.435-1.5512 2.518-1.5512zm-225.1883-20.4617c.5615-1.1403 2.7842-4.5091 5.5047-4.2371 11.9673 1.1979 17.9177 6.9837 23.1494 12.0707l.0038.0038c2.1012 2.0896 1.6207 6.1124-1.1577 8.5088-10.2511 8.8329-16.3867 11.1541-26.6262 11.3451-1.667.0289-5.3542-1.5398-5.5047-5.4643-.4697-11.9286.5518-13.991 4.2339-21.4253l.0001-.0003.0069-.0138c.1268-.256.2567-.5183.3898-.7876zm11.6923 3.5135c-.3011-.1561-.6401-.2244-.9782-.1968l.0116.0116c-.8981.1306-1.7399.5163-2.4252 1.1113-3.4267 3.0157-4.7523 4.8854-6.4425 9.5161-.573 1.5628.741 3.3166 1.534 3.6118 3.4035 1.2677 8.1442 1.9622 14.6444-.2084 1.7597-.5904 2.7551-2.3906 2.1763-3.774-1.4529-3.3861-3.143-7.2179-8.5204-10.0716zm157.413 9.1975-6.738-8.6824c-.127-.1646-.29-.3607-.473-.5816v-.0003c-.957-1.1543-2.477-2.9861-2.467-4.5407 0-.9319 1.03-2.3153 2.084-2.3153h11.576 8.984c7.044 0 11.056 2.5758 12.051 4.758 1.91 4.2139.782 8.1036-.162 10.5752-1.58 4.1039-7.814 7.0559-10.378 7.5884-2.565.5325-10.691.5788-12.497.5788h-.811c-.124-.0133-.25.0018-.368.0443-.118.0424-.225.1112-.312.2009-.088.0898-.154.1982-.194.3171-.039.119-.051.2454-.034.3697v13.6083h-7.803l-.029-.1563v-18.3894c0-1.4818.712-1.7365 1.32-1.7365h2.848c7.322 0 13.608-.3994 14.928-.5788 1.319-.1795 3.797-.5789 5.047-1.6556 2.072-1.8059 3.913-5.0762 2.095-8.0341-.659-1.0708-2.176-1.5397-7.293-1.5397-1.206 0-2.454-.0049-3.65-.0096-2.247-.0088-4.309-.0169-5.559.0096-.932.0521-1.916.2316-.961 1.5687l6.026 8.4393.063.11c-.798.0406-1.586.0463-2.437.0463h-4.804c-.017.0036-.034.0056-.052.0057zm21.388 25.214h7.525c.094.01.189-.01.272-.0573.082-.0472.148-.1193.187-.2059.039-.0865.05-.1832.031-.2762-.019-.0931-.067-.1778-.137-.2421-2.755-3.0389-12.642-13.8977-14.129-15.478-.015-.0268-.033-.052-.053-.0751-1.892.162-4.816.2546-7.252.2546 2.041 2.5132 7.433 9.1898 10.595 13.1056.953 1.1798 1.703 2.109 2.098 2.5982.106.1239.239.2221.388.2873.15.0651.312.0955.475.0889z" fill="#1d1d1d" fill-rule="evenodd"/></g></svg>