<svg width="72" height="72" viewBox="0 0 72 72" fill="none" xmlns="http://www.w3.org/2000/svg">
<circle cx="36" cy="36" r="36" fill="#CDFF2C"/>
<path d="M40.085 20.1307C41.4731 20.5925 41.9511 21.817 41.6355 23.0631C40.6434 26.5805 39.6729 30.1494 38.6977 33.6884C38.7928 33.7463 38.8695 33.8299 38.919 33.9296C38.9686 34.0293 38.9888 34.141 38.9775 34.2518C39.3442 33.9746 39.7769 33.798 40.2329 33.7395C40.6888 33.681 41.1522 33.7426 41.577 33.9181C42.6588 34.6759 42.6253 35.9539 42.4979 37.0457C42.7604 36.9594 43.0406 36.9416 43.312 36.9939C43.5833 37.0462 43.8368 37.167 44.0484 37.3447C44.6749 37.9454 44.8566 39.0922 44.5845 39.9893C44.5845 43.2734 44.1762 46.3775 41.577 48.7169V51.0856C41.5737 51.1947 41.5389 51.3005 41.4768 51.3903C41.4148 51.4801 41.3281 51.55 41.2272 51.5916C38.5418 52.6272 35.2515 51.6197 32.6943 51.258C32.565 51.2364 32.447 51.1711 32.3601 51.0731C32.2731 50.975 32.2224 50.8501 32.2163 50.7192C32.2163 49.841 32.5319 48.847 32.5661 47.9018C31.484 46.5195 29.8896 44.9833 29.2438 42.7043C28.7867 41.091 29.3912 39.6502 29.9666 38.0355V34.4592L27.3786 24.938C27.0284 23.4545 27.4128 22.1595 28.8475 21.6492C30.2529 21.2913 31.2954 22.2384 31.7968 23.4433L34.2682 30.7913C35.2596 27.8666 36.1655 24.9107 37.1707 21.9948C37.7441 20.5063 38.8081 19.8182 40.085 20.1314V20.1307ZM38.2313 22.3269C37.0952 25.7917 35.9528 29.2568 34.8039 32.7221C34.7639 32.831 34.6918 32.9252 34.5971 32.9923C34.5024 33.0594 34.3897 33.0963 34.2736 33.098C34.1576 33.0962 34.0448 33.0594 33.9502 32.9923C33.8555 32.9251 33.7834 32.8309 33.7433 32.7221L30.7593 23.8563C30.5527 23.2355 29.8742 22.4859 29.2088 22.6948C28.3645 23.0373 28.2083 23.8832 28.4392 24.5921C29.3024 27.8147 30.1859 31.0407 31.0618 34.2629C31.0756 34.3078 31.0834 34.3542 31.0853 34.4011V36.6547C31.6698 35.9431 32.1574 35.1584 32.8105 34.5046C32.8955 34.4187 33.0059 34.3622 33.1253 34.3434L37.5316 33.7222L40.5507 22.7753C40.6069 22.6147 40.6292 22.4442 40.6162 22.2746C40.6032 22.105 40.5553 21.9399 40.4753 21.7898C40.3954 21.6396 40.2852 21.5076 40.1517 21.4022C40.0183 21.2967 39.8644 21.2201 39.6998 21.177C38.9043 20.9546 38.4175 21.7158 38.2309 22.3269H38.2313ZM38.9197 35.895C38.1601 37.5063 37.9877 39.1661 37.4743 40.8282C37.2661 41.3943 37.3246 42.1605 37.8476 42.346C38.7069 42.5634 39.1318 42.134 39.4096 41.5409C40.0904 40.1467 40.6234 39.0241 41.2745 37.6083C41.5939 36.7166 41.8429 35.3436 41.0763 34.8941C40.2793 34.5862 39.3631 35.0788 38.9213 35.8946L38.9197 35.895ZM37.719 34.826L33.499 35.4124C32.5692 36.515 31.7103 37.6602 30.9229 38.655C30.3914 40.1482 29.997 41.2754 30.3168 42.4037C30.8867 44.4152 32.4333 45.8742 33.604 47.4173C33.6742 47.5142 33.711 47.6314 33.7087 47.751C33.6772 48.5897 33.5759 49.4243 33.4058 50.2462C35.8303 50.628 38.4857 51.2195 40.4583 50.6372V48.4868C40.46 48.4076 40.4785 48.3298 40.5127 48.2584C40.5469 48.187 40.5959 48.1237 40.6565 48.0727C41.9997 46.9403 42.8964 45.3669 43.186 43.634C42.8879 44.0435 42.4755 44.3558 42.0006 44.5318C41.5256 44.7077 41.0093 44.7395 40.5164 44.6231C40.2127 44.5098 39.9396 44.3271 39.7191 44.0895C39.4986 43.8518 39.3367 43.5659 39.2464 43.2546C38.992 43.4108 38.7047 43.5056 38.4073 43.5316C38.1099 43.5576 37.8105 43.514 37.5328 43.4043C36.1501 42.894 36.1131 41.4478 36.4021 40.5065C36.633 39.706 36.8174 38.9102 36.9852 38.2298C36.4308 38.538 35.8444 38.7847 35.2365 38.9656C35.3223 39.7738 35.0098 40.5992 34.8751 41.2538C34.8504 41.405 34.7671 41.5403 34.6433 41.6305C34.5194 41.7206 34.365 41.7582 34.2136 41.7353C34.1398 41.7186 34.0701 41.6876 34.0084 41.644C33.9466 41.6004 33.8941 41.545 33.8538 41.4811C33.8134 41.4171 33.7861 41.3458 33.7734 41.2713C33.7606 41.1968 33.7627 41.1205 33.7795 41.0468C34.031 40.267 34.1531 39.4512 34.1409 38.632C34.1304 38.5053 34.1625 38.3787 34.2323 38.2724C34.302 38.1662 34.4053 38.0863 34.5257 38.0455C35.6448 37.6776 36.3841 37.4193 36.8686 36.9414C37.2576 36.5565 37.5228 35.8638 37.7194 34.8248L37.719 34.826ZM42.0908 38.5631C41.5216 39.7411 40.9747 40.9294 40.4237 42.1163C40.3071 42.3666 40.2842 42.6505 40.359 42.9163C40.4339 43.1821 40.6015 43.4123 40.8316 43.5651C41.1449 43.6332 41.4722 43.5901 41.7572 43.4432C42.0422 43.2963 42.2672 43.0548 42.3936 42.7601C42.74 41.7495 43.2372 40.7174 43.5243 39.713C43.7021 39.1161 43.7167 38.4268 43.2549 38.1259C43.0396 38.061 42.8089 38.0687 42.5984 38.1478C42.3878 38.2269 42.2092 38.3731 42.09 38.5638L42.0908 38.5631Z" fill="#1D1D1D"/>
</svg>
